<?xml version="1.0" encoding="UTF-8"?>
<svg version="1.1" xmlns="http://www.w3.org/2000/svg" width="475" height="525">
<path d="M0 0 C2.9375 2.04296875 2.9375 2.04296875 5 3.8125 C5 4.4725 5 5.1325 5 5.8125 C5.66 5.8125 6.32 5.8125 7 5.8125 C12 11.28869048 12 11.28869048 12 13.8125 C12.66 13.8125 13.32 13.8125 14 13.8125 C15.4606285 16.45988916 16 17.70698334 16 20.8125 C16.66 20.8125 17.32 20.8125 18 20.8125 C18.96739508 22.80813262 19.92346044 24.80925882 20.875 26.8125 C21.40867188 27.92625 21.94234375 29.04 22.4921875 30.1875 C24.10456066 34.06387901 25.07673823 37.72504981 26 41.8125 C26.43699219 40.27142578 26.43699219 40.27142578 26.8828125 38.69921875 C32.05986797 20.96066412 40.38159659 6.27180894 57 -3.1875 C60.27156322 -4.74725578 63.55630496 -6.0609579 67 -7.1875 C68.07765625 -7.54457031 69.1553125 -7.90164063 70.265625 -8.26953125 C82.23972557 -11.21295555 97.02771502 -10.21973992 107.82910156 -4.16162109 C123.155592 5.28209554 134.60668273 19.15594528 139 36.8125 C140.64731093 44.52880978 141.49171851 52.20060542 142.0625 60.0625 C142.53549416 66.34824058 143.00609197 72.58518244 144 78.8125 C147.48444368 79.59968931 150.71717807 79.94453712 154.28662109 79.97021484 C155.31894867 79.98047699 156.35127625 79.99073914 157.41488647 80.00131226 C158.52320831 80.00861359 159.63153015 80.01591492 160.7734375 80.0234375 C163.14974617 80.05153144 165.52604815 80.08019604 167.90234375 80.109375 C171.6254845 80.15040134 175.34850379 80.18731102 179.07177734 80.21386719 C202.81743489 80.39767182 224.39467297 81.40064311 243 97.8125 C243.66 98.1425 244.32 98.4725 245 98.8125 C245 99.4725 245 100.1325 245 100.8125 C245.66 100.8125 246.32 100.8125 247 100.8125 C257.03668793 113.59320853 259.89024425 126.89818781 258 142.8125 C256.88761737 147.22416219 255.27740195 150.88761579 253 154.8125 C252.5771875 155.6065625 252.154375 156.400625 251.71875 157.21875 C243.11971414 171.8171132 225.51349088 179.76568092 210 184.8125 C210.58491211 185.01407715 211.16982422 185.2156543 211.77246094 185.42333984 C214.43262838 186.34189429 217.09131912 187.26465209 219.75 188.1875 C220.67039062 188.50460938 221.59078125 188.82171875 222.5390625 189.1484375 C223.42851562 189.4578125 224.31796875 189.7671875 225.234375 190.0859375 C226.05131836 190.36872559 226.86826172 190.65151367 227.70996094 190.94287109 C229.89306129 191.77189065 231.93306884 192.72922885 234 193.8125 C234 194.4725 234 195.1325 234 195.8125 C235.051875 196.1528125 235.051875 196.1528125 236.125 196.5 C242.10018911 199.22780372 245.74458858 203.17813408 249 208.8125 C249 209.4725 249 210.1325 249 210.8125 C249.66 210.8125 250.32 210.8125 251 210.8125 C257.5296772 222.75034497 260.16904807 233.84525437 256.4375 247.25 C254.21556742 253.89190598 251.14394757 260.14774408 247 265.8125 C246.34 265.8125 245.68 265.8125 245 265.8125 C245 266.4725 245 267.1325 245 267.8125 C244.34 267.8125 243.68 267.8125 243 267.8125 C243 268.4725 243 269.1325 243 269.8125 C242.34 269.8125 241.68 269.8125 241 269.8125 C241 270.4725 241 271.1325 241 271.8125 C240.34 271.8125 239.68 271.8125 239 271.8125 C239 272.4725 239 273.1325 239 273.8125 C225.06188936 284.57081353 210.74377663 287.09916067 193.56640625 287.0859375 C192.19782069 287.09451445 190.82924342 287.10451974 189.4606781 287.11587524 C183.69590912 287.1617758 177.9312059 287.18679502 172.16625977 287.19335938 C168.62077009 287.19836645 165.07583338 287.22255016 161.53053093 287.25868607 C159.53249692 287.27322939 157.53434224 287.26584777 155.53627014 287.25814819 C154.32748703 287.27141144 153.11870392 287.28467468 151.87329102 287.29833984 C150.80869156 287.30118988 149.7440921 287.30403992 148.64723206 287.30697632 C145.88531213 287.57406688 145.88531213 287.57406688 144.16171265 289.6839447 C142.71588375 292.33307379 142.54380911 294.28211597 142.41015625 297.29296875 C142.35053711 298.36659668 142.29091797 299.44022461 142.22949219 300.54638672 C142.14683105 302.25592529 142.14683105 302.25592529 142.0625 304 C140.59564411 327.01566739 135.36885264 345.12949882 118.25 361.5625 C113.03428062 366.11015655 107.36714122 369.15952449 101 371.8125 C99.69675781 372.37517578 99.69675781 372.37517578 98.3671875 372.94921875 C86.33704 376.03351411 70.09109907 375.49029634 59 369.8125 C58.13761719 369.37679688 57.27523438 368.94109375 56.38671875 368.4921875 C39.22623509 358.96147882 31.41518883 343.70750042 25 325.8125 C24.56300781 327.11960937 24.56300781 327.11960937 24.1171875 328.453125 C21.31650236 336.59096484 18.05806805 344.19839293 14 351.8125 C13.34 351.8125 12.68 351.8125 12 351.8125 C11.7525 352.55628906 11.505 353.30007813 11.25 354.06640625 C7.53428863 362.22935966 -2.97836443 368.47594363 -11.10839844 371.63061523 C-17.89012453 373.92179406 -24.25291054 374.31867922 -31.375 374.25 C-32.48117676 374.24170166 -33.58735352 374.23340332 -34.72705078 374.22485352 C-49.23610135 373.923609 -60.47503052 369.08557121 -71.1875 359.1875 C-84.09563681 345.45937909 -88.83382601 328.74719568 -90.48828125 310.5 C-90.61650269 309.09427734 -90.61650269 309.09427734 -90.74731445 307.66015625 C-90.91292571 305.79378938 -91.06934999 303.92657937 -91.21557617 302.05859375 C-91.80879232 294.22694283 -91.80879232 294.22694283 -96 287.8125 C-99.12339728 287.54948772 -99.12339728 287.54948772 -102.82421875 287.65234375 C-103.51407364 287.65804382 -104.20392853 287.6637439 -104.91468811 287.6696167 C-106.39942299 287.68227243 -107.88412708 287.69907695 -109.36877441 287.71957397 C-113.25483293 287.77056635 -117.14100391 287.78279167 -121.02734375 287.796875 C-121.80006622 287.80019333 -122.5727887 287.80351166 -123.368927 287.80693054 C-145.54472296 287.8795063 -168.39209397 287.68435766 -187 273.8125 C-187 273.1525 -187 272.4925 -187 271.8125 C-187.58910156 271.5546875 -188.17820313 271.296875 -188.78515625 271.03125 C-196.89024469 266.57130716 -201.26647462 256.92762068 -204.109375 248.5390625 C-207.01109073 236.39767301 -205.66114037 223.92248798 -200 212.8125 C-197.90553382 209.55392204 -195.64386743 206.63972289 -193 203.8125 C-192.31035156 203.07257813 -191.62070313 202.33265625 -190.91015625 201.5703125 C-189 199.8125 -189 199.8125 -187 199.8125 C-187 199.1525 -187 198.4925 -187 197.8125 C-179.05070994 191.36119174 -168.4782062 188.30229705 -159 184.8125 C-161.3606938 183.23870414 -163.1474533 182.26584868 -165.73046875 181.26171875 C-166.80554688 180.83644897 -166.80554688 180.83644897 -167.90234375 180.40258789 C-168.65644531 180.10473389 -169.41054687 179.80687988 -170.1875 179.5 C-181.92694506 174.73821214 -181.92694506 174.73821214 -187 170.8125 C-187.75667969 170.22855469 -188.51335937 169.64460937 -189.29296875 169.04296875 C-194.70797549 164.56432533 -198.06720227 160.16509139 -201 153.8125 C-201.57041016 152.66201172 -201.57041016 152.66201172 -202.15234375 151.48828125 C-206.86582687 141.60841805 -207.50733896 129.82617688 -204.84375 119.19140625 C-203.06362682 114.17244785 -200.51865791 109.49340196 -198 104.8125 C-197.34 104.8125 -196.68 104.8125 -196 104.8125 C-195.75636719 104.235 -195.51273438 103.6575 -195.26171875 103.0625 C-193.77606505 100.41316089 -192.08902417 98.81866243 -189.8125 96.8125 C-189.07644531 96.1525 -188.34039062 95.4925 -187.58203125 94.8125 C-182.37285171 90.77755307 -176.77472867 88.14296077 -170.6875 85.6875 C-169.47449219 85.18992187 -168.26148438 84.69234375 -167.01171875 84.1796875 C-158.55051278 81.10159924 -150.26831552 80.54211208 -141.33203125 80.6875 C-140.25298019 80.69507324 -139.17392914 80.70264648 -138.06217957 80.71044922 C-134.64544938 80.73468716 -131.22907299 80.77194434 -127.8125 80.8125 C-123.29818579 80.86583742 -118.78404303 80.90573072 -114.26953125 80.9375 C-113.24334183 80.95409668 -112.2171524 80.97069336 -111.15986633 80.98779297 C-104.23693686 81.03502954 -98.57225261 81.01382131 -93.1015625 76.33203125 C-89.98876781 72.12352265 -90.34492618 67.54324935 -90.375 62.5 C-90.11265556 49.51556969 -89.35848077 36.42645978 -83 24.8125 C-82.57976562 23.94496094 -82.15953125 23.07742187 -81.7265625 22.18359375 C-75.28898705 9.39735964 -65.17512826 -1.25467377 -51.65234375 -6.36328125 C-33.65854261 -11.95487483 -15.94380911 -10.24959157 0 0 Z M-68 94.8125 C-68 95.4725 -68 96.1325 -68 96.8125 C-68.66 96.8125 -69.32 96.8125 -70 96.8125 C-70 97.4725 -70 98.1325 -70 98.8125 C-70.59039062 99.06257813 -71.18078125 99.31265625 -71.7890625 99.5703125 C-79.62839421 103.97474269 -85.18099534 115.54852561 -87.59765625 123.87060547 C-91.6894637 140.67989661 -89.42474496 158.04049201 -80.5625 172.875 C-77.7224621 177.52311933 -74.5582572 181.68944007 -71 185.8125 C-72.15835619 188.65573792 -73.3217361 190.12638887 -75.5625 192.3125 C-77.86376327 194.67277002 -78.64621864 195.62846775 -79 198.8125 C-79.66 198.8125 -80.32 198.8125 -81 198.8125 C-87.79934499 210.77623298 -89.66177261 223.28417394 -87 236.8125 C-85.54357471 241.40227931 -83.37627829 245.634029 -81 249.8125 C-80.34 249.8125 -79.68 249.8125 -79 249.8125 C-78.835 250.6375 -78.67 251.4625 -78.5 252.3125 C-76.37992732 257.25933626 -72.88595979 260.18358814 -69 263.8125 C-68.195625 264.658125 -67.39125 265.50375 -66.5625 266.375 C-42.38591072 289.37224346 -8.64094877 297.20853838 23.76977539 297.12817383 C26.43091653 297.12500783 29.09094774 297.1485972 31.75195312 297.17382812 C42.53813787 297.21393476 52.48656396 296.29408818 63 293.8125 C64.27508423 293.51436401 64.27508423 293.51436401 65.57592773 293.21020508 C84.4430514 288.47031586 101.04045836 280.24403548 116 267.8125 C117.546875 266.636875 117.546875 266.636875 119.125 265.4375 C129.46984836 255.99220367 137.48684673 243.61205319 138.3203125 229.41015625 C138.83899996 214.64693983 136.13706271 203.68284796 127.0234375 191.98046875 C126.35570312 191.26503906 125.68796875 190.54960937 125 189.8125 C124.34 189.8125 123.68 189.8125 123 189.8125 C123.31349347 185.31909356 124.17755333 183.39796446 127.4765625 180.39453125 C138.49996658 168.94715009 142.32364317 153.37725618 142.1484375 138.01171875 C141.60977166 126.40205227 136.68550352 115.20834278 130 105.8125 C129.34 105.8125 128.68 105.8125 128 105.8125 C127.814375 105.11125 127.62875 104.41 127.4375 103.6875 C125.47932486 99.77114972 122.59323769 97.2786136 119 94.8125 C118.34 94.8125 117.68 94.8125 117 94.8125 C117 94.1525 117 93.4925 117 92.8125 C109.52642813 88.53686719 102.4252565 84.8295964 94 82.8125 C93.4121875 82.63074219 92.824375 82.44898437 92.21875 82.26171875 C75.8291647 78.94340482 60.17508331 84.34680091 46.375 93 C45.59125 93.598125 44.8075 94.19625 44 94.8125 C44 95.4725 44 96.1325 44 96.8125 C43.4328125 97.04453125 42.865625 97.2765625 42.28125 97.515625 C35.83778253 101.17869212 30.80040292 108.53357343 27 114.8125 C24 113.8125 24 113.8125 22.8125 111.75 C22.544375 111.110625 22.27625 110.47125 22 109.8125 C21.34 109.8125 20.68 109.8125 20 109.8125 C20 109.1525 20 108.4925 20 107.8125 C19.34 107.8125 18.68 107.8125 18 107.8125 C17.731875 107.255625 17.46375 106.69875 17.1875 106.125 C16.795625 105.361875 16.40375 104.59875 16 103.8125 C15.649375 103.049375 15.29875 102.28625 14.9375 101.5 C7.12972111 90.66985509 -8.28402929 84.30253607 -21 81.8125 C-38.17348703 79.87991247 -53.75753116 85.31752078 -68 94.8125 Z " fill="#620AAE" transform="translate(213,9.1875)"/>
<path d="M0 0 C0.92748047 -0.0103125 1.85496094 -0.020625 2.81054688 -0.03125 C11.21435763 0.07765467 17.9343179 2.25222137 24.625 7.4375 C24.625 8.0975 24.625 8.7575 24.625 9.4375 C25.285 9.4375 25.945 9.4375 26.625 9.4375 C26.625 10.4275 26.625 11.4175 26.625 12.4375 C27.285 12.4375 27.945 12.4375 28.625 12.4375 C33.19405806 23.53378385 33.93205642 32.51678477 29.6953125 43.9453125 C26.18261932 51.67323749 20.72173883 58.70634078 13.625 63.4375 C14.31207031 63.83582031 14.99914062 64.23414063 15.70703125 64.64453125 C16.60808594 65.17433594 17.50914063 65.70414062 18.4375 66.25 C19.33082031 66.77207031 20.22414062 67.29414063 21.14453125 67.83203125 C26.81877603 71.50465267 29.00388493 75.93722395 30.625 82.4375 C31.90690007 92.91631798 31.34272092 102.85137476 25.046875 111.640625 C15.27316186 123.52757341 2.63446843 127.57251307 -12.25 129.125 C-21.83561589 129.80177647 -30.41096474 128.91693593 -39.375 125.4375 C-45.94864994 96.67072391 -43.99294524 65.72483043 -42.5 36.4375 C-42.46088501 35.63482697 -42.42177002 34.83215393 -42.38146973 34.00515747 C-42.26660419 31.71112271 -42.13948174 29.41812536 -42.0078125 27.125 C-41.93449707 25.80886719 -41.86118164 24.49273437 -41.78564453 23.13671875 C-40.72190556 13.55421407 -40.72190556 13.55421407 -36.609375 10.14453125 C-24.49680638 3.55866154 -13.85621746 0.12872398 0 0 Z M-10.375 33.4375 C-12.84788913 36.93013723 -12.84306094 40.86257625 -13.0625 45 C-13.10955078 45.67224609 -13.15660156 46.34449219 -13.20507812 47.03710938 C-13.39563888 50.18292387 -13.38168544 52.41744368 -12.375 55.4375 C-7.38406453 53.96290543 -3.76652007 52.65042949 -0.92578125 48.1328125 C-0.51714844 47.28460938 -0.10851562 46.43640625 0.3125 45.5625 C0.72886719 44.71945312 1.14523438 43.87640625 1.57421875 43.0078125 C2.62451907 40.43867641 3.32809503 38.19778841 3.625 35.4375 C2.04166667 33.02083333 2.04166667 33.02083333 -0.375 31.4375 C-4.35406647 31.4375 -6.75681456 31.86437589 -10.375 33.4375 Z M-10.375 81.4375 C-10.375 82.0975 -10.375 82.7575 -10.375 83.4375 C-11.035 83.4375 -11.695 83.4375 -12.375 83.4375 C-12.375 88.0575 -12.375 92.6775 -12.375 97.4375 C-8.0055794 97.18047526 -5.85677009 96.83726667 -2.4375 94 C-0.16599686 91.72606683 -0.16599686 91.72606683 -0.375 89.4375 C0.285 89.4375 0.945 89.4375 1.625 89.4375 C2.75791596 85.38577836 2.75791596 85.38577836 1.5625 81.5625 C-2.20598299 79.37434859 -6.36086969 80.20238298 -10.375 81.4375 Z " fill="#58099F" transform="translate(90.375,394.5625)"/>
<path d="M0 0 C5.45334194 3.59220139 7.35287323 7.69047022 8.69140625 13.96484375 C12.16454413 12.80713112 12.46202334 12.11280188 14.37890625 9.15234375 C17.54117131 4.83523189 20.49053911 2.38973886 25.69140625 0.96484375 C30.80804613 0.27495972 35.05449048 0.11228345 39.69140625 2.52734375 C49.51749842 14.50289359 48.87825983 33.10866993 48.87670898 47.7734375 C48.87888173 50.06399521 48.8970515 52.35405918 48.91601562 54.64453125 C49.03521229 85.78214076 49.03521229 85.78214076 41.69140625 97.02734375 C38.8972854 99.73414832 37.21867339 100.89649431 33.31640625 101.40234375 C29.69140625 100.96484375 29.69140625 100.96484375 26.87890625 99.15234375 C21.72943772 91.64883247 22.41037466 81.52660279 22.49609375 72.734375 C22.49892365 71.61794113 22.50175354 70.50150726 22.50466919 69.35124207 C22.51575918 65.82649478 22.54084245 62.30201271 22.56640625 58.77734375 C22.57645051 56.37044641 22.58557382 53.96354504 22.59375 51.55664062 C22.61566174 45.69261964 22.64902594 39.82875065 22.69140625 33.96484375 C20.23250076 34.32279385 20.23250076 34.32279385 17.69140625 34.96484375 C11.64575718 43.67715374 11.65863961 56.52427623 11.15332031 66.67236328 C10.7005784 74.54296336 9.32267673 82.25961284 7.69140625 89.96484375 C7.54687012 90.65835938 7.40233398 91.351875 7.25341797 92.06640625 C6.3286999 96.15161367 5.47438144 99.77460389 2.69140625 102.96484375 C-0.2265625 103.453125 -0.2265625 103.453125 -3.49609375 103.27734375 C-5.12611328 103.20966797 -5.12611328 103.20966797 -6.7890625 103.140625 C-7.62050781 103.08261719 -8.45195312 103.02460937 -9.30859375 102.96484375 C-16.05968079 91.20488568 -14.56822411 77.35767713 -14.70996094 64.12890625 C-14.82329529 54.34307144 -15.27768628 45.37955632 -18.30859375 35.96484375 C-18.96859375 35.96484375 -19.62859375 35.96484375 -20.30859375 35.96484375 C-21.29022797 37.90109473 -22.26881829 39.83888914 -23.24609375 41.77734375 C-23.79136719 42.85628906 -24.33664062 43.93523437 -24.8984375 45.046875 C-26.69971839 48.77417922 -27.43577337 51.51277869 -27.44140625 55.60546875 C-27.44269531 56.51167969 -27.44398438 57.41789062 -27.4453125 58.3515625 C-27.43951172 59.76888672 -27.43951172 59.76888672 -27.43359375 61.21484375 C-27.43746094 62.14425781 -27.44132812 63.07367188 -27.4453125 64.03125 C-27.43811606 69.11913319 -27.09780053 73.92837909 -26.30859375 78.96484375 C-25.29600073 93.83834117 -25.29600073 93.83834117 -30.30859375 99.96484375 C-33.64902161 102.6141486 -37.17555571 102.32739095 -41.30859375 101.96484375 C-46.15579814 100.04850713 -48.25798715 96.58021118 -50.30859375 91.96484375 C-51.13282028 88.9305504 -51.58374012 85.89149905 -51.99609375 82.77734375 C-52.11275391 82.00326172 -52.22941406 81.22917969 -52.34960938 80.43164062 C-55.74456392 57.0122084 -58.57647589 26.90355943 -47.87109375 5.02734375 C-46.05213959 2.62632426 -45.22415982 1.75283458 -42.30859375 0.96484375 C-38.35457982 1.04636981 -33.28633799 1.22531905 -30.30859375 3.96484375 C-29.66191638 6.66762351 -29.48891012 9.16993995 -29.30859375 11.96484375 C-28.56609375 11.22234375 -27.82359375 10.47984375 -27.05859375 9.71484375 C-26.15109375 8.80734375 -25.24359375 7.89984375 -24.30859375 6.96484375 C-23.71046875 6.28421875 -23.11234375 5.60359375 -22.49609375 4.90234375 C-16.1867232 -0.68595588 -8.08167172 -3.62376143 0 0 Z " fill="#5A0CA0" transform="translate(380.30859375,422.03515625)"/>
<path d="M0 0 C3.02207319 2.24480293 5.84628338 4.63549842 8.66015625 7.13671875 C15.59445183 12.98107085 24.38710495 16.60343428 32.84765625 19.63671875 C33.56695312 19.91386719 34.28625 20.19101563 35.02734375 20.4765625 C54.61336362 27.28761785 77.83602007 25.52033881 96.84765625 17.63671875 C101.24915006 15.49237674 105.464933 13.05978171 109.65234375 10.52734375 C112.84765625 8.63671875 112.84765625 8.63671875 115.84765625 7.63671875 C116.28078125 6.67765625 116.28078125 6.67765625 116.72265625 5.69921875 C118.23864273 2.91991021 119.90632898 2.56555894 122.84765625 1.63671875 C122.84765625 0.97671875 122.84765625 0.31671875 122.84765625 -0.36328125 C123.50765625 -0.36328125 124.16765625 -0.36328125 124.84765625 -0.36328125 C124.84765625 -1.02328125 124.84765625 -1.68328125 124.84765625 -2.36328125 C128.57722536 -4.84966066 132.5252418 -5.03185615 136.84765625 -4.36328125 C139.66307869 -3.26201057 142.25263688 -1.90925023 144.84765625 -0.36328125 C144.84765625 0.29671875 144.84765625 0.95671875 144.84765625 1.63671875 C145.50765625 1.63671875 146.16765625 1.63671875 146.84765625 1.63671875 C150.25645296 8.17024577 151.01646878 13.86215777 149.25 21.078125 C143.37584598 35.89431104 123.69656196 45.34130356 109.890625 51.41796875 C81.4790757 63.41872127 48.81227753 64.15127305 19.84765625 53.63671875 C18.9026123 53.3121167 18.9026123 53.3121167 17.93847656 52.98095703 C5.71285689 48.77033016 -5.42156715 42.19245818 -15.15234375 33.63671875 C-15.15234375 32.97671875 -15.15234375 32.31671875 -15.15234375 31.63671875 C-15.74660156 31.38921875 -16.34085938 31.14171875 -16.953125 30.88671875 C-19.48773134 29.44608992 -20.6520394 27.99704155 -22.33984375 25.63671875 C-22.84902344 24.93546875 -23.35820312 24.23421875 -23.8828125 23.51171875 C-27.33721408 18.40983333 -26.66113421 12.60410399 -26.15234375 6.63671875 C-23.74181393 1.14071076 -20.37546546 -0.84499043 -15.15234375 -3.36328125 C-9.70537742 -5.23703767 -4.69196098 -2.97185913 0 0 Z " fill="#630CAE" transform="translate(177.15234375,218.36328125)"/>
<path d="M0 0 C1.65625 1.046875 1.65625 1.046875 4.09375 3.046875 C4.09375 3.706875 4.09375 4.366875 4.09375 5.046875 C4.75375 5.046875 5.41375 5.046875 6.09375 5.046875 C16.99598115 15.94910615 20.32761432 30.89252879 20.46875 45.921875 C20.32947528 60.81635662 17.68904627 77.13547273 8.09375 89.046875 C7.43375 89.046875 6.77375 89.046875 6.09375 89.046875 C6.09375 89.706875 6.09375 90.366875 6.09375 91.046875 C5.43375 91.046875 4.77375 91.046875 4.09375 91.046875 C3.43375 92.366875 2.77375 93.686875 2.09375 95.046875 C1.10375 95.046875 0.11375 95.046875 -0.90625 95.046875 C-0.90625 95.706875 -0.90625 96.366875 -0.90625 97.046875 C-5.77031956 99.86711693 -10.60172195 99.49150484 -16.09375 99.546875 C-17.09728516 99.588125 -18.10082031 99.629375 -19.13476562 99.671875 C-27.90759822 99.76319922 -32.93663624 96.89851073 -39.140625 90.87890625 C-50.85305657 75.27239305 -53.90196886 57.25456213 -51.40234375 38.20703125 C-48.56119957 23.51425704 -42.68382024 10.62320608 -30.90625 1.046875 C-27.9638245 -0.40553631 -25.1053638 -1.26803753 -21.90625 -1.953125 C-20.8853125 -2.22576172 -20.8853125 -2.22576172 -19.84375 -2.50390625 C-13.43938116 -3.98879015 -5.88224805 -2.94112402 0 0 Z M-18.46875 26.921875 C-23.66124614 33.57892133 -24.37692609 40.82171832 -24.21875 49.046875 C-24.22197266 49.88476562 -24.22519531 50.72265625 -24.22851562 51.5859375 C-24.15939411 59.7045735 -23.44073368 67.7217508 -17.90625 74.046875 C-15.27858611 75.00907202 -15.27858611 75.00907202 -12.90625 75.046875 C-6.14929705 67.59092691 -5.41875653 60.18381556 -5.53125 50.546875 C-5.51964844 49.55300781 -5.50804687 48.55914062 -5.49609375 47.53515625 C-5.52765415 39.5714148 -6.97293563 32.55884997 -11.90625 26.046875 C-14.92631573 24.23483556 -15.62864607 24.84375017 -18.46875 26.921875 Z " fill="#58099F" transform="translate(298.90625,425.953125)"/>
<path d="M0 0 C2.61177104 1.74583625 4.97241848 3.58972926 7 6 C7 6.66 7 7.32 7 8 C7.66 8 8.32 8 9 8 C9 8.66 9 9.32 9 10 C9.66 10 10.32 10 11 10 C21.78300304 26.30708247 22.34807545 46.89639005 18.81494141 65.63793945 C17.27555397 72.6833672 15.2343731 79.09129026 11 85 C10.47792969 85.76183594 9.95585937 86.52367187 9.41796875 87.30859375 C6.55945122 91.32164634 6.55945122 91.32164634 5 93 C4.34 93 3.68 93 3 93 C3 93.66 3 94.32 3 95 C-3.19616824 99.40577401 -8.39279172 99.67112952 -15.875 99.625 C-16.91269531 99.65722656 -17.95039063 99.68945312 -19.01953125 99.72265625 C-26.36134338 99.73191453 -31.61253512 98.18963458 -37 93 C-37 92.34 -37 91.68 -37 91 C-37.66 91 -38.32 91 -39 91 C-49.73614954 78.53221343 -52.78450662 62.16487996 -51.75 46.1875 C-51.5177671 44.12292398 -51.26848732 42.06017495 -51 40 C-50.88205078 38.57880859 -50.88205078 38.57880859 -50.76171875 37.12890625 C-49.55423909 26.40706883 -44.72159216 14.27297871 -37.125 6.4375 C-34 4 -34 4 -32 4 C-32 3.34 -32 2.68 -32 2 C-30.41800369 1.35089846 -28.83434276 0.70585306 -27.25 0.0625 C-26.36828125 -0.29714844 -25.4865625 -0.65679687 -24.578125 -1.02734375 C-16.19087688 -4.19162372 -8.17386028 -3.59013961 0 0 Z M-19.828125 28.109375 C-26.79889385 39.35554874 -24.58605752 54.73922358 -22.046875 66.94140625 C-20.89810582 70.29769831 -19.36094453 72.38052229 -17 75 C-13.25540265 74.49397333 -11.39794173 73.94025553 -9 71 C-3.66534042 57.75454181 -3.59113313 43.92237802 -8.94921875 30.6484375 C-10.26589757 28.11916515 -11.52514768 26.30635634 -13.9375 24.75 C-16.60688063 25.07356129 -18.05479628 26.11711681 -19.828125 28.109375 Z " fill="#590BA0" transform="translate(222,426)"/>
<path d="M0 0 C2.30841575 2.04047464 2.54649145 3.51847403 2.75 6.546875 C2.29625 7.145 1.8425 7.743125 1.375 8.359375 C-0.97062954 11.51695323 -1.26390359 14.71643482 -1.25 18.546875 C-0.56513799 23.08199783 0.91468671 27.35187319 2.75 31.546875 C3.41 31.546875 4.07 31.546875 4.75 31.546875 C4.75 32.206875 4.75 32.866875 4.75 33.546875 C11.84607287 36.55733016 16.25638356 38.04474715 23.75 35.546875 C26.5625 35.296875 26.5625 35.296875 28.75 35.546875 C31.06550171 37.86237671 31.09178912 38.39404615 31.1875 41.546875 C31.03236646 48.41707451 27.82167505 54.65573901 23.125 59.609375 C20.75 61.546875 20.75 61.546875 17.75 62.546875 C17.75 63.206875 17.75 63.866875 17.75 64.546875 C9.46808131 71.58763421 -0.80323951 72.37725853 -11.25 71.546875 C-21.69699542 69.97697132 -30.40946929 64.74089432 -36.94140625 56.4140625 C-44.3965546 45.77656724 -46.34256337 35.17363174 -44.6875 22.296875 C-43.46789188 15.87835345 -40.37472521 10.57631588 -36.25 5.546875 C-35.59 5.546875 -34.93 5.546875 -34.25 5.546875 C-34.25 4.886875 -34.25 4.226875 -34.25 3.546875 C-23.06786883 -4.88555178 -12.39585341 -6.62833828 0 0 Z " fill="#640EAF" transform="translate(187.25,123.453125)"/>
<path d="M0 0 C2.16975341 1.54784956 4.03658318 3.18383944 6 5 C4.17550753 9.69155206 4.17550753 9.69155206 2.953125 11.83984375 C0.91308426 16.46337871 1.12603328 22.33340836 2.6875 27.09765625 C5.21955505 31.89801061 9.15945174 35.57972587 14 38 C19.22864918 38.29928295 24.43814082 38.16102927 29.625 37.4375 C30.73875 37.293125 31.8525 37.14875 33 37 C34 38 34 38 34.25 41 C34.12653669 48.53126184 30.78358573 57.15805562 25.48046875 62.54296875 C21.50052521 66 21.50052521 66 19 66 C19 66.66 19 67.32 19 68 C9.46721933 73.51897828 -1.82273732 74.38010164 -12.4375 71.9375 C-18.56145403 70.1178108 -24.02190146 66.99595918 -29 63 C-29 62.34 -29 61.68 -29 61 C-29.66 61 -30.32 61 -31 61 C-38.66886697 53.14224468 -41.66959534 42.12290975 -42.16796875 31.37890625 C-41.71922371 22.35182589 -39.20460991 13.76590714 -33 7 C-30.80859375 5.7578125 -30.80859375 5.7578125 -29 5 C-29 4.34 -29 3.68 -29 3 C-19.52075508 -2.80361934 -10.30976772 -5.33192027 0 0 Z " fill="#630CAE" transform="translate(294,122)"/>
<path d="M0 0 C2.97183308 0.67308312 4.13048811 2.13122763 6.03515625 4.4609375 C10.83980364 14.55428257 9.55800079 27.09771468 8.52734375 37.9140625 C7.90107234 45.10654005 7.88462668 52.28299272 7.90478516 59.49584961 C7.91012379 61.75967175 7.9048179 64.02329338 7.8984375 66.28710938 C7.89487333 74.60576587 8.18825929 82.82468365 8.80371094 91.12280273 C9.10937376 95.53137628 9.21880793 99.91806624 9.22265625 104.3359375 C9.23490234 105.0990625 9.24714844 105.8621875 9.25976562 106.6484375 C9.27709367 113.46413555 8.90895693 120.51838064 4.53515625 126.0234375 C1.84062217 128.37455057 -0.4170496 128.9955982 -3.96484375 129.2734375 C-7.69748219 129.01562764 -9.74766538 128.37219853 -12.33984375 125.6484375 C-28.51526092 102.72946613 -25.34353216 60.3985848 -20.96484375 34.4609375 C-20.74828125 32.85798828 -20.74828125 32.85798828 -20.52734375 31.22265625 C-19.32809633 22.79580164 -16.88721567 15.02551192 -12.96484375 7.4609375 C-12.30484375 7.4609375 -11.64484375 7.4609375 -10.96484375 7.4609375 C-10.69671875 6.6771875 -10.42859375 5.8934375 -10.15234375 5.0859375 C-7.96594034 0.25283523 -4.92209694 0.2086438 0 0 Z " fill="#56069F" transform="translate(152.96484375,396.5390625)"/>
<path d="M0 0 C0.33 0 0.66 0 1 0 C2.07436701 4.35715511 2.14912997 8.6024777 2.125 13.0625 C2.12886719 13.75021484 2.13273438 14.43792969 2.13671875 15.14648438 C2.12915302 19.28872029 1.89473333 23.35304682 1.5 27.4765625 C0.86435605 34.66138597 0.84949009 41.82908888 0.86962891 49.03491211 C0.87496754 51.29873425 0.86966165 53.56235588 0.86328125 55.82617188 C0.85983479 64.13331622 1.15982567 72.33599372 1.77734375 80.62231445 C2.08130782 85.23343614 2.11208336 89.81861896 2.0625 94.4375 C2.05798828 95.27603516 2.05347656 96.11457031 2.04882812 96.97851562 C2.03735844 98.9857103 2.01944478 100.99286674 2 103 C1.34 103 0.68 103 0 103 C-1.19460043 87.50965164 -1.15468702 72.0127286 -1.13037109 56.48754883 C-1.12467965 52.80569313 -1.12804774 49.12390986 -1.13382339 45.44205666 C-1.15387933 30.27135261 -1.08402347 15.14052366 0 0 Z " fill="#7F4AAC" transform="translate(160,407)"/>
<path d="M0 0 C0.33 0 0.66 0 1 0 C1.02705729 1.77074917 1.04642195 3.54161711 1.0625 5.3125 C1.07410156 6.29863281 1.08570313 7.28476562 1.09765625 8.30078125 C1 11 1 11 0 14 C-0.09669531 16.53943788 -0.13999466 19.05055746 -0.1328125 21.58984375 C-0.13424759 22.70124474 -0.13424759 22.70124474 -0.13571167 23.83509827 C-0.13639166 25.4010527 -0.13454996 26.96700998 -0.13037109 28.53295898 C-0.12502785 30.92503222 -0.13031824 33.31691704 -0.13671875 35.70898438 C-0.13605779 37.23177125 -0.13477625 38.754558 -0.1328125 40.27734375 C-0.13483673 40.99099594 -0.13686096 41.70464813 -0.13894653 42.43992615 C-0.12319167 45.79226338 0.06345908 48.78069825 1 52 C1.04324082 54.06204667 1.04018725 56.12539156 1 58.1875 C0.96252213 60.12463749 0.95311509 62.06306736 1 64 C1.33 64.33 1.66 64.66 2 65 C2.07226502 66.85287502 2.0838122 68.70833878 2.0625 70.5625 C2.05347656 71.57441406 2.04445312 72.58632813 2.03515625 73.62890625 C2.02355469 74.41136719 2.01195312 75.19382812 2 76 C1.34 76 0.68 76 0 76 C-4.79107035 53.6261666 -4.88659992 28.52525795 -1 6 C-0.81308594 4.87335938 -0.62617188 3.74671875 -0.43359375 2.5859375 C-0.29050781 1.73257812 -0.14742187 0.87921875 0 0 Z " fill="#814DB0" transform="translate(133,425)"/>
<path d="M0 0 C2 3 2 3 2 7 C5.49751962 7.78962742 8.75152456 8.13621779 12.33422852 8.17358398 C13.37623917 8.18707382 14.41824982 8.20056366 15.49183655 8.21446228 C17.16843605 8.23011986 17.16843605 8.23011986 18.87890625 8.24609375 C21.26888362 8.27905004 23.65885749 8.31226136 26.04882812 8.34570312 C29.79855803 8.39293881 33.54827559 8.43735033 37.2980957 8.47680664 C40.92935163 8.51686343 44.56031554 8.56834012 48.19140625 8.62109375 C49.29496964 8.6295079 50.39853302 8.63792206 51.53553772 8.64659119 C58.85344195 8.7610422 65.81766913 9.59907231 73 11 C73 11.33 73 11.66 73 12 C70.6739143 12.38063221 68.33944736 12.71269945 66 13 C65.505 12.505 65.505 12.505 65 12 C63.29367058 11.88733411 61.5827652 11.84321025 59.87280273 11.82641602 C58.77753769 11.81292618 57.68227264 11.79943634 56.55381775 11.78553772 C55.35914383 11.77509933 54.16446991 11.76466095 52.93359375 11.75390625 C50.42122072 11.72094933 47.90885101 11.68773801 45.39648438 11.65429688 C41.42245846 11.60698996 37.44847755 11.56260888 33.47436523 11.52319336 C29.64812451 11.4833342 25.82217342 11.43180049 21.99609375 11.37890625 C20.81558945 11.3704921 19.63508514 11.36207794 18.41880798 11.35340881 C12.30373346 11.26232825 6.8170996 10.97107611 1 9 C-0.4783226 6.04335481 -0.06032783 3.25770263 0 0 Z " fill="#A976D0" transform="translate(355,81)"/>
<path d="M0 0 C0 0.66 0 1.32 0 2 C-1.11375 2.28875 -2.2275 2.5775 -3.375 2.875 C-7.00291092 3.69241329 -7.00291092 3.69241329 -9 6 C-9.66 6.66 -10.32 7.32 -11 8 C-11.495 6.515 -11.495 6.515 -12 5 C-13.00675781 5.144375 -14.01351562 5.28875 -15.05078125 5.4375 C-26.08568043 6.92544098 -36.87524022 7.21980865 -48 7 C-48 6.34 -48 5.68 -48 5 C-50.31 5 -52.62 5 -55 5 C-55 4.67 -55 4.34 -55 4 C-53.53530273 3.97812622 -53.53530273 3.97812622 -52.04101562 3.95581055 C-48.33544522 3.89679348 -44.63041895 3.81959358 -40.92529297 3.73754883 C-39.33716823 3.70477597 -37.74894028 3.67660485 -36.16064453 3.65356445 C-26.25757565 3.50617869 -16.93591565 2.70770774 -7.24023438 0.63208008 C-4 0 -4 0 0 0 Z M-13 7 C-12.67 7.66 -12.34 8.32 -12 9 C-12.66 8.67 -13.32 8.34 -14 8 C-13.67 7.67 -13.34 7.34 -13 7 Z " fill="#A270CB" transform="translate(280,302)"/>
<path d="M0 0 C8.4805762 6.54215879 11.1946587 19.5593229 12.73876953 29.69873047 C13.72763089 38.40995215 13.80462651 47.24165457 14 56 C11.33355255 53.33355255 11.60629672 51.75340765 11.32421875 48.0234375 C11.22117432 46.80205078 11.11812988 45.58066406 11.01196289 44.32226562 C10.90489014 43.01966797 10.79781738 41.71707031 10.6875 40.375 C9.46750594 22.31906631 9.46750594 22.31906631 1.83984375 6.34375 C0 4 0 4 0 0 Z " fill="#965CC2" transform="translate(341,25)"/>
<path d="M0 0 C1.26972656 -0.01417969 2.53945312 -0.02835937 3.84765625 -0.04296875 C6.71892807 0.02740725 9.21927602 0.45873036 11.9921875 1.19140625 C18.57361894 2.77866357 25.27267334 2.39870527 32 2.3125 C33.35611315 2.30244631 34.71223355 2.2933247 36.06835938 2.28515625 C39.358261 2.26174058 42.64778438 2.22894423 45.9375 2.1875 C45.9375 2.5175 45.9375 2.8475 45.9375 3.1875 C31.13863462 5.2619342 16.94534402 5.86445032 2.0625 4.3125 C1.29494385 4.23418945 0.5273877 4.15587891 -0.26342773 4.07519531 C-3.88583423 3.64898181 -5.97719726 3.24436849 -9.0625 1.1875 C-6.07249787 -0.30750106 -3.32739576 0.01665363 0 0 Z " fill="#8D51BE" transform="translate(219.0625,273.8125)"/>
<path d="M0 0 C1.77155654 0.11429397 3.54226229 0.24183037 5.3125 0.375 C6.79169922 0.47941406 6.79169922 0.47941406 8.30078125 0.5859375 C11 1 11 1 14 3 C16.56620071 3.27474776 19.05290005 3.46338713 21.625 3.5625 C28.87937318 3.87937318 28.87937318 3.87937318 30 5 C32.28988781 5.15888092 34.58443441 5.25138073 36.87890625 5.31640625 C37.5655687 5.33718735 38.25223114 5.35796844 38.95970154 5.37937927 C41.16052935 5.44494143 43.36147975 5.50379015 45.5625 5.5625 C47.05144514 5.60567892 48.54037773 5.649293 50.02929688 5.69335938 C53.68606553 5.8006293 57.34297318 5.90187772 61 6 C60.67 6.66 60.34 7.32 60 8 C18.08557084 8.59593975 18.08557084 8.59593975 0 1 C0 0.67 0 0.34 0 0 Z " fill="#8349BA" transform="translate(38,289)"/>
<path d="M0 0 C2.35171131 0.59861742 4.6859378 1.26924352 7 2 C8.44824657 4.89649315 8.12985014 7.4271664 8.1328125 10.66015625 C8.13376923 11.32405869 8.13472595 11.98796112 8.13571167 12.67198181 C8.13639295 14.08169652 8.1345423 15.49141435 8.13037109 16.90112305 C8.12508111 19.02985978 8.1302868 21.15837975 8.13671875 23.28710938 C8.13979302 30.26231288 7.97118233 37.08610676 7 44 C6.67 44 6.34 44 6 44 C5.67 30.8 5.34 17.6 5 4 C3.35 4.33 1.7 4.66 0 5 C-1.37466625 7.47636012 -1.37466625 7.47636012 -2 10 C-2.33 10 -2.66 10 -3 10 C-2.67 7.36 -2.34 4.72 -2 2 C-1.34 2 -0.68 2 0 2 C0 1.34 0 0.68 0 0 Z " fill="#7945AF" transform="translate(398,452)"/>
<path d="M0 0 C8.99440029 2.04650746 16.62673984 5.6703015 23.75146484 11.61328125 C21.75146484 12.61328125 21.75146484 12.61328125 19.18896484 11.80078125 C16.75146484 10.61328125 16.75146484 10.61328125 15.75146484 8.61328125 C14.76146484 8.28328125 13.77146484 7.95328125 12.75146484 7.61328125 C12.75146484 6.95328125 12.75146484 6.29328125 12.75146484 5.61328125 C11.76146484 5.94328125 10.77146484 6.27328125 9.75146484 6.61328125 C9.75146484 5.95328125 9.75146484 5.29328125 9.75146484 4.61328125 C7.79320611 4.58633274 5.83484258 4.56690907 3.87646484 4.55078125 C2.78591797 4.53917969 1.69537109 4.52757812 0.57177734 4.515625 C-2.20031061 4.41583822 -2.20031061 4.41583822 -4.24853516 5.61328125 C-3.91853516 4.29328125 -3.58853516 2.97328125 -3.24853516 1.61328125 C-7.70353516 2.10828125 -7.70353516 2.10828125 -12.24853516 2.61328125 C-12.24853516 1.95328125 -12.24853516 1.29328125 -12.24853516 0.61328125 C-13.32103516 0.77828125 -14.39353516 0.94328125 -15.49853516 1.11328125 C-19.24853516 1.61328125 -19.24853516 1.61328125 -23.24853516 1.61328125 C-17.17274281 -2.43724698 -7.05903396 -1.21406187 0 0 Z " fill="#8445BE" transform="translate(192.24853515625,0.38671875)"/>
<path d="M0 0 C-1 3 -1 3 -3 4 C-11.27845977 4.38190995 -19.52119412 3.93538694 -27.77929688 3.3581543 C-39.16373736 2.64726721 -50.59949032 2.91809073 -62 3 C-62 2.67 -62 2.34 -62 2 C-58.57438881 1.22483094 -55.43119631 0.88102544 -51.921875 0.90234375 C-50.93735352 0.90564697 -49.95283203 0.9089502 -48.93847656 0.91235352 C-47.8862793 0.92065186 -46.83408203 0.9289502 -45.75 0.9375 C-44.11369629 0.94317993 -44.11369629 0.94317993 -42.44433594 0.94897461 C-37.78445856 0.96530751 -33.12466934 0.99347568 -28.46484375 1.02050781 C-25.05989995 1.03857874 -21.65497031 1.05068068 -18.25 1.0625 C-17.19780273 1.07079834 -16.14560547 1.07909668 -15.06152344 1.08764648 C-14.07700195 1.09094971 -13.09248047 1.09425293 -12.078125 1.09765625 C-10.78503418 1.10551147 -10.78503418 1.10551147 -9.46582031 1.11352539 C-6.24754942 0.96535747 -3.20737105 0 0 0 Z " fill="#9C66C6" transform="translate(117,89)"/>
<path d="M0 0 C0.33 0.66 0.66 1.32 1 2 C1.66 2.33 2.32 2.66 3 3 C2.67 4.65 2.34 6.3 2 8 C1.01 8.33 0.02 8.66 -1 9 C-0.67 18.24 -0.34 27.48 0 37 C-0.33 37 -0.66 37 -1 37 C-1.08040527 36.20827393 -1.16081055 35.41654785 -1.24365234 34.60083008 C-1.61323072 31.0038993 -1.99399469 27.40823757 -2.375 23.8125 C-2.50132813 22.56662109 -2.62765625 21.32074219 -2.7578125 20.03710938 C-2.88671875 18.83505859 -3.015625 17.63300781 -3.1484375 16.39453125 C-3.26364746 15.28956299 -3.37885742 14.18459473 -3.49755859 13.04614258 C-4.21424603 8.70109439 -5.56343192 5.65485212 -8 2 C-6.865625 1.855625 -5.73125 1.71125 -4.5625 1.5625 C-1.19222799 1.38828522 -1.19222799 1.38828522 0 0 Z " fill="#7A37B7" transform="translate(125,294)"/>
<path d="M0 0 C11.22291172 -0.45807803 21.4501478 -0.46778903 32 4 C32.495 4.99 32.495 4.99 33 6 C30.36 6 27.72 6 25 6 C24.67 5.01 24.34 4.02 24 3 C23.02933594 3.17402344 22.05867188 3.34804688 21.05859375 3.52734375 C16.67517823 4.15354597 12.46284565 3.89054633 8.0625 3.5625 C6.89364258 3.48418945 6.89364258 3.48418945 5.70117188 3.40429688 C3.80033228 3.27601936 1.90009096 3.13892679 0 3 C0 2.01 0 1.02 0 0 Z " fill="#772EB3" transform="translate(287,0)"/>
<path d="M0 0 C0.33 0 0.66 0 1 0 C1 1.65 1 3.3 1 5 C5.32331963 5.02480062 9.64660106 5.04290758 13.9699707 5.05493164 C15.43937909 5.05994669 16.90878252 5.06676033 18.37817383 5.07543945 C20.49561795 5.08762928 22.61299583 5.09325669 24.73046875 5.09765625 C26.00301514 5.10289307 27.27556152 5.10812988 28.58666992 5.11352539 C31.5450689 5.01513075 34.11926172 4.60502152 37 4 C39.8125 4.4375 39.8125 4.4375 42 5 C42 5.33 42 5.66 42 6 C27.52760946 9.297912 13.04605527 10.63970401 -1 5 C-0.67 3.35 -0.34 1.7 0 0 Z " fill="#713E9F" transform="translate(52,515)"/>
<path d="M0 0 C3.3 0 6.6 0 10 0 C10 0.99 10 1.98 10 3 C10.99 3.33 11.98 3.66 13 4 C12.67 5.32 12.34 6.64 12 8 C12.99 8 13.98 8 15 8 C15 8.99 15 9.98 15 11 C8.73581469 9.51637716 4.08486495 5.75837844 -1 2 C-0.67 1.34 -0.34 0.68 0 0 Z " fill="#7D34B9" transform="translate(146,369)"/>
<path d="M0 0 C1 1 1 1 1.125 4.3125 C1.02893262 7.14648763 0.85249568 9.33595099 0 12 C-0.66 12 -1.32 12 -2 12 C-5.14135768 8.73782087 -5 7.88212497 -5 3 C-10.28 3 -15.56 3 -21 3 C-21 2.34 -21 1.68 -21 1 C-20.09636719 1.01160156 -19.19273437 1.02320313 -18.26171875 1.03515625 C-16.49248047 1.04869141 -16.49248047 1.04869141 -14.6875 1.0625 C-13.51574219 1.07410156 -12.34398437 1.08570313 -11.13671875 1.09765625 C-7.23560016 0.97620175 -3.96530954 -0.2087005 0 0 Z " fill="#8645C4" transform="translate(327,159)"/>
<path d="M0 0 C0.66 0 1.32 0 2 0 C1.67 0.763125 1.34 1.52625 1 2.3125 C-0.64992595 8.39660194 -1.4032802 15.10864978 1.625 20.875 C4.18825695 24.24770651 6.62707714 26.47030786 10 29 C9.01 29.66 8.02 30.32 7 31 C7 30.34 7 29.68 7 29 C5.68 28.67 4.36 28.34 3 28 C3 27.34 3 26.68 3 26 C2.34 26 1.68 26 1 26 C-3.8825444 19.59166047 -4.03215046 12.86666023 -3 5 C-1.59765625 2.0703125 -1.59765625 2.0703125 0 0 Z " fill="#7F46B6" transform="translate(296,130)"/>
<path d="M0 0 C4.85828128 2.53035483 6.35723233 5.98043212 8 11 C7.67 11.99 7.34 12.98 7 14 C6 13 6 13 5.9375 10.4375 C5.958125 9.633125 5.97875 8.82875 6 8 C5.34 8 4.68 8 4 8 C4 7.34 4 6.68 4 6 C3.195625 5.690625 2.39125 5.38125 1.5625 5.0625 C-1 4 -1 4 -2 3 C-3.68608966 2.92794489 -5.37500659 2.91613932 -7.0625 2.9375 C-7.98160156 2.94652344 -8.90070313 2.95554687 -9.84765625 2.96484375 C-10.55792969 2.97644531 -11.26820313 2.98804688 -12 3 C-11.01 3.66 -10.02 4.32 -9 5 C-9.99 5.66 -10.98 6.32 -12 7 C-12.33 5.68 -12.66 4.36 -13 3 C-14.32 3.33 -15.64 3.66 -17 4 C-16 2 -16 2 -13.78125 0.8984375 C-9.19047302 -0.58453821 -4.76766422 -0.56723716 0 0 Z " fill="#8453B1" transform="translate(417,423)"/>
<path d="M0 0 C0 0.66 0 1.32 0 2 C9.9 1.67 19.8 1.34 30 1 C24.28370894 4.81086071 18.89838335 4.18356138 12.25 4.1875 C11.1775 4.19974609 10.105 4.21199219 9 4.22460938 C3.26649662 4.23520082 -1.59342509 3.95409065 -7 2 C-4 0 -4 0 0 0 Z " fill="#7E43B1" transform="translate(284,379)"/>
<path d="M0 0 C0.33 0.66 0.66 1.32 1 2 C0.525625 2.680625 0.05125 3.36125 -0.4375 4.0625 C-2.5454084 8.02536779 -2.47455005 11.58303414 -2 16 C-1.67 16.33 -1.34 16.66 -1 17 C-0.95936168 18.66617115 -0.957279 20.33388095 -1 22 C-0.34 22 0.32 22 1 22 C1 22.66 1 23.32 1 24 C1.66 24 2.32 24 3 24 C2.67 25.32 2.34 26.64 2 28 C1.01886757 26.70982586 0.04015801 25.41780894 -0.9375 24.125 C-1.48277344 23.40570313 -2.02804688 22.68640625 -2.58984375 21.9453125 C-5.16951202 18.38665655 -5.16289795 16.00416549 -5.1875 11.625 C-5.20167969 10.48289063 -5.21585938 9.34078125 -5.23046875 8.1640625 C-5.00957216 5.1314144 -4.75207115 3.45639211 -3 1 C-2.01 0.67 -1.02 0.34 0 0 Z " fill="#773DB0" transform="translate(156,220)"/>
<path d="M0 0 C0.33 0 0.66 0 1 0 C2.07409925 4.35606919 2.15388552 8.60317378 2.125 13.0625 C2.12161621 13.80967285 2.11823242 14.5568457 2.11474609 15.32666016 C1.95590796 32.56613805 1.95590796 32.56613805 -1 37 C-1.13305432 24.62594802 -0.76677886 12.35061658 0 0 Z " fill="#8B58B4" transform="translate(160,407)"/>
<path d="M0 0 C1.921875 0.69921875 1.921875 0.69921875 4 2 C6.7359427 9.08505916 6.951373 18.54246329 6 26 C4.48046875 28.37890625 4.48046875 28.37890625 3 30 C3.03480469 29.09121094 3.06960937 28.18242187 3.10546875 27.24609375 C3.31050426 17.72658779 2.20914743 9.27052939 0 0 Z " fill="#8152B2" transform="translate(213,457)"/>
<path d="M0 0 C0 0.33 0 0.66 0 1 C-1.27875 1.2475 -2.5575 1.495 -3.875 1.75 C-6.07448022 2.23891114 -6.07448022 2.23891114 -8 3 C-9.20882096 5.00016466 -9.20882096 5.00016466 -10 7 C-13.3186024 8.13531135 -15.68989426 8.10336858 -19 7 C-19 7.99 -19 8.98 -19 10 C-19.99 9.67 -20.98 9.34 -22 9 C-20.15717252 4.31280838 -17.20632149 3.06336316 -12.8203125 0.97265625 C-8.50699676 -0.51490001 -4.49933437 -0.43078733 0 0 Z " fill="#7940AA" transform="translate(378,421)"/>
<path d="M0 0 C4.1523287 0.55364383 8.25803906 1.22408894 12.375 2 C15.96037853 2.67349652 19.49192175 3.17603124 23.125 3.5 C24.40375 3.665 25.6825 3.83 27 4 C27.33 4.66 27.66 5.32 28 6 C25.64575325 6.02726927 23.29183038 6.04696719 20.9375 6.0625 C18.97103516 6.07990234 18.97103516 6.07990234 16.96484375 6.09765625 C13.1836481 6.00452335 9.72079293 5.61448726 6 5 C6 4.34 6 3.68 6 3 C3.03 2.505 3.03 2.505 0 2 C0 1.34 0 0.68 0 0 Z " fill="#7838B3" transform="translate(210,239)"/>
<path d="M0 0 C7.30999472 3.5737752 15.80257293 9.32641618 19.32421875 16.81640625 C19.65873047 17.89728516 19.65873047 17.89728516 20 19 C19.01 19 18.02 19 17 19 C17 17.68 17 16.36 17 15 C16.360625 14.87625 15.72125 14.7525 15.0625 14.625 C14.381875 14.41875 13.70125 14.2125 13 14 C12.67 13.34 12.34 12.68 12 12 C11.34 12 10.68 12 10 12 C10 11.34 10 10.68 10 10 C9.34 10 8.68 10 8 10 C8 9.01 8 8.02 8 7 C5.69 7 3.38 7 1 7 C1.66 6.67 2.32 6.34 3 6 C2.2575 5.071875 2.2575 5.071875 1.5 4.125 C0 2 0 2 0 0 Z " fill="#8A4BBE" transform="translate(321,6)"/>
<path d="M0 0 C0 0.66 0 1.32 0 2 C0.99 1.67 1.98 1.34 3 1 C6 7.625 6 7.625 6 11 C5.34 11.66 4.68 12.32 4 13 C1.125 6.375 1.125 6.375 0 3 C-4.35355773 3.32115145 -4.35355773 3.32115145 -7.75 5.8125 C-8.91216036 7.84628063 -10.01354157 9.87532031 -11 12 C-11.3672496 5.63434022 -11.3672496 5.63434022 -9.625 2.625 C-6.58439879 -0.41560121 -4.15723429 -0.09037466 0 0 Z " fill="#743FA5" transform="translate(287,449)"/>
<path d="M0 0 C0.33 0 0.66 0 1 0 C1.125 5.75 1.125 5.75 0 8 C-0.15344209 9.88472859 -0.24959571 11.77427874 -0.31640625 13.6640625 C-0.35830078 14.78554687 -0.40019531 15.90703125 -0.44335938 17.0625 C-0.48267578 18.238125 -0.52199219 19.41375 -0.5625 20.625 C-0.60568359 21.80835938 -0.64886719 22.99171875 -0.69335938 24.2109375 C-0.79967426 27.14050328 -0.90170642 30.07015588 -1 33 C-1.33 33 -1.66 33 -2 33 C-4.22325973 22.02265507 -5.7075264 10.23997383 0 0 Z " fill="#925DBC" transform="translate(146,136)"/>
<path d="M0 0 C3.03200339 1.0106678 3.99878825 1.63493157 6 4 C6.33 4.99 6.66 5.98 7 7 C7.66 6.67 8.32 6.34 9 6 C8.67 8.31 8.34 10.62 8 13 C9.32 13.66 10.64 14.32 12 15 C12 15.99 12 16.98 12 18 C11.34 18 10.68 18 10 18 C10 17.34 10 16.68 10 16 C9.34 16 8.68 16 8 16 C6.30859375 14.0234375 6.30859375 14.0234375 4.4375 11.375 C3.81746094 10.51648438 3.19742187 9.65796875 2.55859375 8.7734375 C0.87884668 5.78441389 0.36258875 3.38747297 0 0 Z " fill="#7A3BB5" transform="translate(255,167)"/>
<path d="M0 0 C0.33 0 0.66 0 1 0 C1.7598975 22.95474996 1.7598975 22.95474996 -0.8125 34.25 C-0.97782227 34.9807373 -1.14314453 35.71147461 -1.31347656 36.46435547 C-2.26690649 40.23588008 -3.38538295 43.09320512 -6 46 C-6 44.35 -6 42.7 -6 41 C-5.34 41 -4.68 41 -4 41 C-4.061875 39.948125 -4.12375 38.89625 -4.1875 37.8125 C-4.20052905 34.06664898 -3.52317669 30.86419628 -2.5625 27.25 C-0.32136855 18.29604557 -0.26568814 9.18914495 0 0 Z " fill="#8C5CB5" transform="translate(241,460)"/>
<path d="M0 0 C3.92139379 3.75089841 3.92139379 3.75089841 4.12025452 6.91091919 C4.11803391 7.68813324 4.11581329 8.46534729 4.11352539 9.26611328 C4.11344986 10.14687531 4.11337433 11.02763733 4.11329651 11.93508911 C4.10813522 12.88721283 4.10297394 13.83933655 4.09765625 14.8203125 C4.0962413 15.79410858 4.09482635 16.76790466 4.09336853 17.77120972 C4.08775973 20.88917073 4.07520573 24.0070606 4.0625 27.125 C4.05748613 29.23567605 4.05292303 31.34635322 4.04882812 33.45703125 C4.03778745 38.63804521 4.02104073 43.81901752 4 49 C3.67 49 3.34 49 3 49 C2.98018066 47.94200195 2.96036133 46.88400391 2.93994141 45.79394531 C2.86301359 41.81277399 2.7744425 37.83192745 2.68261719 33.85107422 C2.6446831 32.13857504 2.60977316 30.42600578 2.578125 28.71337891 C2.39608833 18.98010561 2.03958448 9.56279916 0 0 Z " fill="#9565BE" transform="translate(363,458)"/>
<path d="M0 0 C1.65 0 3.3 0 5 0 C3.59868598 4.6960702 1.29614189 6.80056111 -2.5 9.8125 C-3.4796875 10.60269531 -4.459375 11.39289063 -5.46875 12.20703125 C-8 14 -8 14 -10 14 C-9.67 13.01 -9.34 12.02 -9 11 C-8.01 11 -7.02 11 -6 11 C-6.33 9.02 -6.66 7.04 -7 5 C-6.01 4.34 -5.02 3.68 -4 3 C-3.01 3.33 -2.02 3.66 -1 4 C-0.67 2.68 -0.34 1.36 0 0 Z " fill="#884CBC" transform="translate(457,168)"/>
<path d="M0 0 C0.33 0 0.66 0 1 0 C1 4.62 1 9.24 1 14 C-0.32 14.33 -1.64 14.66 -3 15 C-5.24850483 17.47661498 -5.24850483 17.47661498 -7 20 C-7.99 19.67 -8.98 19.34 -10 19 C-9.52949219 18.38253906 -9.05898438 17.76507813 -8.57421875 17.12890625 C-4.52022054 11.61446148 -1.68604398 6.64783055 0 0 Z " fill="#6212AA" transform="translate(349,247)"/>
<path d="M0 0 C0.66 0.33 1.32 0.66 2 1 C-0.14548206 5.86309267 -3.45127048 7.82984774 -7.84375 10.47265625 C-10.11602221 12.0821824 -11.45693232 13.70023567 -13 16 C-13.66 15.67 -14.32 15.34 -15 15 C-13.44396229 11.18063472 -11.04395069 8.73955562 -8 6 C-7.34 6 -6.68 6 -6 6 C-6 5.34 -6 4.68 -6 4 C-4.03852126 2.61061923 -2.03833424 1.2739589 0 0 Z " fill="#8B4FBE" transform="translate(32,203)"/>
<path d="M0 0 C2.93200474 2.85276137 5.64315404 5.65079784 8 9 C6.44095325 12.82675111 3.96833913 15.18007783 1 18 C0.34 18.66 -0.32 19.32 -1 20 C-1 18.02 -1 16.04 -1 14 C-0.01 14 0.98 14 2 14 C1.67 13.01 1.34 12.02 1 11 C1.66 10.67 2.32 10.34 3 10 C3.33 9.01 3.66 8.02 4 7 C3.34 7 2.68 7 2 7 C0 4 0 4 0 0 Z " fill="#9255C0" transform="translate(135,186)"/>
<path d="M0 0 C0.99 0.33 1.98 0.66 3 1 C1.67519115 6.43171629 -0.93431827 10.24467565 -5 14 C-5.99 14.33 -6.98 14.66 -8 15 C-7.835 14.401875 -7.67 13.80375 -7.5 13.1875 C-6.8885876 10.88655664 -6.8885876 10.88655664 -7 8 C-7 7.34 -7 6.68 -7 6 C-6.01 5.67 -5.02 5.34 -4 5 C-3.34 4.34 -2.68 3.68 -2 3 C-1.34 2.67 -0.68 2.34 0 2 C0 1.34 0 0.68 0 0 Z " fill="#7A37BA" transform="translate(323,172)"/>
<path d="M0 0 C0.33 0 0.66 0 1 0 C1.04487549 0.59949463 1.08975098 1.19898926 1.13598633 1.81665039 C1.34897455 4.56639992 1.58059076 7.31428416 1.8125 10.0625 C1.88275391 11.00544922 1.95300781 11.94839844 2.02539062 12.91992188 C2.40240341 17.24802865 2.80171832 21.02635178 4.63671875 24.99609375 C6 28 6 28 5 31 C3 30 3 30 2 27 C1.34 26.67 0.68 26.34 0 26 C0 17.42 0 8.84 0 0 Z " fill="#9164B8" transform="translate(274,470)"/>
<path d="M0 0 C0.33 0 0.66 0 1 0 C1.31902563 5.95514514 0.71551102 11.41440039 -0.375 17.25 C-0.50108643 17.93513672 -0.62717285 18.62027344 -0.75708008 19.32617188 C-1.49003816 23.07555197 -2.44408465 26.50933774 -4 30 C-4.33 30 -4.66 30 -5 30 C-5 27.69 -5 25.38 -5 23 C-4.34 23 -3.68 23 -3 23 C-2.97294271 21.22925083 -2.95357805 19.45838289 -2.9375 17.6875 C-2.92589844 16.70136719 -2.91429687 15.71523438 -2.90234375 14.69921875 C-2.87670138 11.90036151 -2.87670138 11.90036151 -4 9 C-3.34 8.01 -2.68 7.02 -2 6 C-2 6.66 -2 7.32 -2 8 C-1.34 8 -0.68 8 0 8 C0 5.36 0 2.72 0 0 Z " fill="#9465B8" transform="translate(318,472)"/>
<path d="M0 0 C0.99 0 1.98 0 3 0 C1.85445386 8.5317541 -0.69642306 16.06889353 -4 24 C-4.33 24 -4.66 24 -5 24 C-5 22.35 -5 20.7 -5 19 C-4.34 19 -3.68 19 -3 19 C-2.86722656 17.71222656 -2.73445312 16.42445313 -2.59765625 15.09765625 C-2.41950101 13.41924638 -2.24110308 11.74086227 -2.0625 10.0625 C-1.97548828 9.21236328 -1.88847656 8.36222656 -1.79882812 7.48632812 C-1.71181641 6.67744141 -1.62480469 5.86855469 -1.53515625 5.03515625 C-1.456604 4.2862915 -1.37805176 3.53742676 -1.29711914 2.76586914 C-1 1 -1 1 0 0 Z " fill="#8B51C0" transform="translate(236,327)"/>
<path d="M0 0 C2.66135342 1.91071528 3.71846213 3.15538639 4.75 6.25 C4.87375 7.11625 4.87375 7.11625 5 8 C4.34 8 3.68 8 3 8 C3 7.01 3 6.02 3 5 C2.01 4.67 1.02 4.34 0 4 C0 3.34 0 2.68 0 2 C-2.97 2 -5.94 2 -9 2 C-9.33 3.32 -9.66 4.64 -10 6 C-10.8125 8.1875 -10.8125 8.1875 -12 10 C-14.125 10.75 -14.125 10.75 -16 11 C-15.67 9.68 -15.34 8.36 -15 7 C-14.34 7 -13.68 7 -13 7 C-12.731875 6.21625 -12.46375 5.4325 -12.1875 4.625 C-9.78283017 -0.69058594 -5.24899837 -0.86777796 0 0 Z " fill="#7F4DAE" transform="translate(155,397)"/>
<path d="M0 0 C2 1 2 1 3.10546875 3.04296875 C4.24723267 6.81727131 4.33984592 10.40587882 4.3125 14.3125 C4.31121094 15.06781006 4.30992188 15.82312012 4.30859375 16.60131836 C4.21553356 21.98077907 3.47303951 26.15696429 1 31 C0.67 31 0.34 31 0 31 C-1.125 23.25 -1.125 23.25 0 21 C0.66 21 1.32 21 2 21 C2.05451714 18.95863605 2.09302485 16.91684144 2.125 14.875 C2.14820312 13.73804688 2.17140625 12.60109375 2.1953125 11.4296875 C1.99626167 7.93435499 1.20291581 5.26776342 0 2 C0 1.34 0 0.68 0 0 Z " fill="#8257A9" transform="translate(117,471)"/>
<path d="M0 0 C1.84756647 3.40398211 2.1626629 5.31177367 1.6875 9.1875 C1.58824219 10.06792969 1.48898438 10.94835937 1.38671875 11.85546875 C1 14 1 14 0 15 C-0.15888092 17.28988781 -0.25138073 19.58443441 -0.31640625 21.87890625 C-0.33718735 22.5655687 -0.35796844 23.25223114 -0.37937927 23.95970154 C-0.44494143 26.16052935 -0.50379015 28.36147975 -0.5625 30.5625 C-0.60567892 32.05144514 -0.649293 33.54037773 -0.69335938 35.02929688 C-0.8006293 38.68606553 -0.90187772 42.34297318 -1 46 C-1.33 46 -1.66 46 -2 46 C-2.05016131 41.53834423 -2.08607179 37.07684626 -2.10986328 32.61499023 C-2.11980161 31.10324233 -2.13335698 29.59151301 -2.15087891 28.07983398 C-2.25914856 18.48523174 -1.8319455 9.45403666 0 0 Z " fill="#500894" transform="translate(134,426)"/>
<path d="M0 0 C0.33 0 0.66 0 1 0 C0.67 7.92 0.34 15.84 0 24 C-0.66 24.33 -1.32 24.66 -2 25 C-3.2089048 15.96962677 -2.7719047 8.69156559 0 0 Z " fill="#9861C2" transform="translate(255,138)"/>
<path d="M0 0 C0.33 0 0.66 0 1 0 C1.03738281 0.79921875 1.07476562 1.5984375 1.11328125 2.421875 C1.53070492 9.39530567 2.49370741 15.81007525 4.37890625 22.5390625 C5 25 5 25 5 28 C4.01 28 3.02 28 2 28 C-0.13540594 21.9384737 -0.23853866 16.45123306 -0.125 10.0625 C-0.11597656 9.09248047 -0.10695313 8.12246094 -0.09765625 7.12304688 C-0.07426107 4.74843593 -0.04148176 2.37435224 0 0 Z " fill="#9968C9" transform="translate(123,146)"/>
<path d="M0 0 C0.33 0 0.66 0 1 0 C1.33 7.92 1.66 15.84 2 24 C2.66 24 3.32 24 4 24 C3.67 25.98 3.34 27.96 3 30 C-2.3116827 22.03247596 -1.72114048 11.40855356 -0.5 2.25 C-0.335 1.5075 -0.17 0.765 0 0 Z " fill="#9766C4" transform="translate(8,129)"/>
<path d="M0 0 C3 0 3 0 5 1 C4.67 2.65 4.34 4.3 4 6 C4.99 5.67 5.98 5.34 7 5 C7.33 4.01 7.66 3.02 8 2 C10.5625 0.8125 10.5625 0.8125 13 0 C12.67 0.94875 12.34 1.8975 12 2.875 C10.89840809 5.77062452 10.89840809 5.77062452 11 8 C2.42857143 7.28571429 2.42857143 7.28571429 -1 4 C-0.67 2.68 -0.34 1.36 0 0 Z " fill="#530599" transform="translate(334,514)"/>
<path d="M0 0 C2.0625 1.75 2.0625 1.75 4 4 C3.62109375 6.140625 3.62109375 6.140625 3 8 C1.93458984 8.18175781 1.93458984 8.18175781 0.84765625 8.3671875 C-0.07144531 8.53476562 -0.99054688 8.70234375 -1.9375 8.875 C-3.31228516 9.11863281 -3.31228516 9.11863281 -4.71484375 9.3671875 C-5.46894531 9.57601563 -6.22304687 9.78484375 -7 10 C-7.33 10.66 -7.66 11.32 -8 12 C-8.66 11.34 -9.32 10.68 -10 10 C-4.25 6 -4.25 6 -2 6 C-1.855625 5.38125 -1.71125 4.7625 -1.5625 4.125 C-1 2 -1 2 0 0 Z " fill="#6826A1" transform="translate(90,439)"/>
<path d="M0 0 C0.33 0.66 0.66 1.32 1 2 C-0.1875 5.0625 -0.1875 5.0625 -2 8 C-2.66128906 8.13148437 -3.32257813 8.26296875 -4.00390625 8.3984375 C-4.66261719 8.59695312 -5.32132813 8.79546875 -6 9 C-7.1375213 11.08034294 -7.1375213 11.08034294 -7.75 13.5625 C-7.99234375 14.38878906 -8.2346875 15.21507812 -8.484375 16.06640625 C-8.65453125 16.70449219 -8.8246875 17.34257813 -9 18 C-9.99 18 -10.98 18 -12 18 C-10.67733174 13.12130558 -8.70477643 10.02117427 -5.4375 6.1875 C-4.63183594 5.23230469 -3.82617188 4.27710938 -2.99609375 3.29296875 C-1 1 -1 1 0 0 Z " fill="#8A50BE" transform="translate(258,15)"/>
<path d="M0 0 C1.3303125 0.4021875 1.3303125 0.4021875 2.6875 0.8125 C1.6975 1.3075 1.6975 1.3075 0.6875 1.8125 C0.6875 2.4725 0.6875 3.1325 0.6875 3.8125 C0.0275 3.8125 -0.6325 3.8125 -1.3125 3.8125 C-1.3125 4.4725 -1.3125 5.1325 -1.3125 5.8125 C-1.9725 5.8125 -2.6325 5.8125 -3.3125 5.8125 C-3.3125 6.4725 -3.3125 7.1325 -3.3125 7.8125 C-3.9725 7.8125 -4.6325 7.8125 -5.3125 7.8125 C-5.3125 8.4725 -5.3125 9.1325 -5.3125 9.8125 C-6.3025 10.1425 -7.2925 10.4725 -8.3125 10.8125 C-8.78177699 6.77671785 -8.61108931 5.22525581 -6.1875 1.875 C-3.3125 -0.1875 -3.3125 -0.1875 0 0 Z " fill="#7C3CB6" transform="translate(457.3125,273.1875)"/>
<path d="M0 0 C1.13775853 3.59993909 1.06728714 6.93203656 1 10.6875 C0.96255691 12.7913335 0.95305678 14.89635704 1 17 C1.33 17.33 1.66 17.66 2 18 C2.42339421 19.59207821 2.78966289 21.19957573 3.125 22.8125 C3.31320313 23.68519531 3.50140625 24.55789063 3.6953125 25.45703125 C3.99875868 27.98963976 3.79414358 29.60079158 3 32 C-1.59363223 22.68969182 -3.34971068 10.04913203 0 0 Z " fill="#9C6AC6" transform="translate(9,233)"/>
<path d="M0 0 C0.66 0.33 1.32 0.66 2 1 C1.71125 1.70125 1.4225 2.4025 1.125 3.125 C-1.10643701 8.82756125 -2.37180457 13.92744415 -3 20 C-3.33 20 -3.66 20 -4 20 C-4 14.06 -4 8.12 -4 2 C-2.68 1.34 -1.36 0.68 0 0 Z " fill="#9055C1" transform="translate(129,209)"/>
<path d="M0 0 C0.66 0.33 1.32 0.66 2 1 C2.60409415 8.49076746 1.2195544 13.71226963 -3 20 C-3.99 20.66 -4.98 21.32 -6 22 C-6.33 20.35 -6.66 18.7 -7 17 C-6.360625 16.7525 -5.72125 16.505 -5.0625 16.25 C-2.81258459 15.18437567 -2.81258459 15.18437567 -2.25 12.875 C-2.1675 12.25625 -2.085 11.6375 -2 11 C-1.34 11 -0.68 11 0 11 C0 7.37 0 3.74 0 0 Z " fill="#8C56BB" transform="translate(216,160)"/>
<path d="M0 0 C0.66 0 1.32 0 2 0 C2 0.66 2 1.32 2 2 C2.66 2 3.32 2 4 2 C4.50266794 4.12437048 5.0020561 6.24951726 5.5 8.375 C5.91765625 10.15003906 5.91765625 10.15003906 6.34375 11.9609375 C7 15 7 15 7 17 C7.99 17.33 8.98 17.66 10 18 C9.34 18.99 8.68 19.98 8 21 C4.26646758 14.06126522 1.29978351 7.79870106 0 0 Z " fill="#884ABB" transform="translate(125,335)"/>
<path d="M0 0 C0.66 0.99 1.32 1.98 2 3 C4.81274752 3.41764382 4.81274752 3.41764382 8.1015625 3.29296875 C9.31328125 3.28330078 10.525 3.27363281 11.7734375 3.26367188 C13.04445312 3.23853516 14.31546875 3.21339844 15.625 3.1875 C16.90375 3.17396484 18.1825 3.16042969 19.5 3.14648438 C22.66708282 3.11103196 25.83333541 3.06161441 29 3 C25.62409485 5.25060343 24.43877161 5.25658785 20.484375 5.265625 C18.85435547 5.26949219 18.85435547 5.26949219 17.19140625 5.2734375 C16.05574219 5.26570313 14.92007813 5.25796875 13.75 5.25 C12.62980469 5.25773437 11.50960937 5.26546875 10.35546875 5.2734375 C4.52027427 5.259659 -0.50063006 5.00266073 -6 3 C-6 2.67 -6 2.34 -6 2 C-4.02 1.34 -2.04 0.68 0 0 Z " fill="#8450B3" transform="translate(168,378)"/>
<path d="M0 0 C2.475 0.99 2.475 0.99 5 2 C6.12998844 11.34258296 6.09908936 20.60853097 6 30 C5.67 30 5.34 30 5 30 C4.96132813 28.51113281 4.96132813 28.51113281 4.921875 26.9921875 C4.56033537 17.41435073 3.06928424 9.13647402 0 0 Z " fill="#AC7ED2" transform="translate(346,210)"/>
<path d="M0 0 C5.17781223 -0.02477057 10.35558975 -0.04289347 15.53344727 -0.05493164 C17.29387005 -0.0599517 19.05428868 -0.0667691 20.81469727 -0.07543945 C23.34913154 -0.08760703 25.88351054 -0.09325166 28.41796875 -0.09765625 C29.20149216 -0.10281754 29.98501556 -0.10797882 30.7922821 -0.11329651 C34.65591139 -0.11369066 38.245165 0.0555724 42 1 C42 1.33 42 1.66 42 2 C39.6739143 2.38063221 37.33944736 2.71269945 35 3 C34.505 2.505 34.505 2.505 34 2 C31.48119483 1.84011509 28.98657734 1.74065775 26.46484375 1.68359375 C25.33496788 1.6524221 25.33496788 1.6524221 24.18226624 1.62062073 C21.7674401 1.55504575 19.35250202 1.49620379 16.9375 1.4375 C15.30402471 1.3943223 13.6705609 1.35070827 12.03710938 1.30664062 C8.02485536 1.19935638 4.01248836 1.09811179 0 1 C0 0.67 0 0.34 0 0 Z " fill="#884ABC" transform="translate(386,91)"/>
<path d="M0 0 C3.5 1.5 3.5 1.5 6 3 C4 4 4 4 2.3125 3.5625 C-0.94729229 2.76957755 -3.65121605 2.71131173 -7 3 C-9.02951535 4.28796166 -11.03501678 5.61558 -13 7 C-13.99 6.67 -14.98 6.34 -16 6 C-15.34 6 -14.68 6 -14 6 C-14 5.34 -14 4.68 -14 4 C-13.34 4 -12.68 4 -12 4 C-12 3.34 -12 2.68 -12 2 C-8.27254949 -0.48496701 -4.32419492 -0.57158898 0 0 Z " fill="#9668C4" transform="translate(314,214)"/>
<path d="M0 0 C-0.66 0.66 -1.32 1.32 -2 2 C-2.99 2 -3.98 2 -5 2 C-5.226875 2.61875 -5.45375 3.2375 -5.6875 3.875 C-7.4345045 6.70348348 -8.84221117 7.06701694 -12 8 C-13.9924325 8.37593066 -15.9918674 8.71979545 -18 9 C-14.51315324 5.09473163 -5.41490809 -2.70745404 0 0 Z " fill="#8C54C1" transform="translate(42,97)"/>
<path d="M0 0 C0 0.66 0 1.32 0 2 C-0.474375 2.45375 -0.94875 2.9075 -1.4375 3.375 C-3.22093737 5.22977487 -3.5691993 6.50135592 -4 9 C-4.99 9 -5.98 9 -7 9 C-7.2475 9.804375 -7.495 10.60875 -7.75 11.4375 C-9 14 -9 14 -11.125 14.8125 C-11.74375 14.874375 -12.3625 14.93625 -13 15 C-11.58581617 10.73439116 -9.51748869 7.9940014 -6.5 4.6875 C-5.7059375 3.80449219 -4.911875 2.92148438 -4.09375 2.01171875 C-2 0 -2 0 0 0 Z " fill="#9763C5" transform="translate(147,13)"/>
<path d="M0 0 C0.99 0.33 1.98 0.66 3 1 C3 1.99 3 2.98 3 4 C4.32 4.33 5.64 4.66 7 5 C7.12375 5.5775 7.2475 6.155 7.375 6.75 C7.91843033 9.03560051 7.91843033 9.03560051 9.125 11.0625 C10 13 10 13 9 16 C0 4.52427184 0 4.52427184 0 0 Z " fill="#7F4BB0" transform="translate(252,502)"/>
<path d="M0 0 C0 0.66 0 1.32 0 2 C-1.670625 2.433125 -1.670625 2.433125 -3.375 2.875 C-7.00291092 3.69241329 -7.00291092 3.69241329 -9 6 C-9.66 6.66 -10.32 7.32 -11 8 C-11.33 7.01 -11.66 6.02 -12 5 C-12.99 5 -13.98 5 -15 5 C-15 4.01 -15 3.02 -15 2 C-13.2508503 1.66223316 -11.50063855 1.32996329 -9.75 1 C-8.77546875 0.814375 -7.8009375 0.62875 -6.796875 0.4375 C-4 0 -4 0 0 0 Z M-13 7 C-12.67 7.66 -12.34 8.32 -12 9 C-12.66 8.67 -13.32 8.34 -14 8 C-13.67 7.67 -13.34 7.34 -13 7 Z " fill="#8745BD" transform="translate(280,302)"/>
<path d="M0 0 C5.40489519 1.52012677 8.98492628 5.27385218 13 9 C8.74938644 10.41687119 6.28148375 9.19320039 2 8 C2.19464844 7.37480469 2.38929688 6.74960938 2.58984375 6.10546875 C2.72519531 5.41066406 2.86054688 4.71585938 3 4 C1.62485459 2.2912354 1.62485459 2.2912354 0 1 C0 0.67 0 0.34 0 0 Z " fill="#7733B8" transform="translate(175,218)"/>
<path d="M0 0 C0.33 0 0.66 0 1 0 C1.75475351 8.35619957 2.13605482 16.60995285 2 25 C1.67 25 1.34 25 1 25 C0.95101563 24.25234375 0.90203125 23.5046875 0.8515625 22.734375 C0.77679688 21.74953125 0.70203125 20.7646875 0.625 19.75 C0.55539062 18.77546875 0.48578125 17.8009375 0.4140625 16.796875 C0.01093978 14.07389513 -0.72004602 12.39607385 -2 10 C-2.33083127 6.0300247 -2.09972674 3.41205596 0 0 Z " fill="#500C8C" transform="translate(350,474)"/>
<path d="M0 0 C0.33 0 0.66 0 1 0 C1.06058594 1.22976563 1.12117187 2.45953125 1.18359375 3.7265625 C1.26805005 5.35938427 1.35269547 6.99219627 1.4375 8.625 C1.47681641 9.43324219 1.51613281 10.24148438 1.55664062 11.07421875 C1.78796082 15.45150865 2.16920917 19.68547281 3 24 C1.5 22.75 1.5 22.75 0 21 C0 19.68 0 18.36 0 17 C-0.66 17 -1.32 17 -2 17 C-1.34 11.39 -0.68 5.78 0 0 Z " fill="#530E8E" transform="translate(196,465)"/>
<path d="M0 0 C0.94314127 3.41610225 1.08065117 6.45134864 1 10 C0.01 10.33 -0.98 10.66 -2 11 C-2.33 12.98 -2.66 14.96 -3 17 C-3.66 17 -4.32 17 -5 17 C-4.53444296 10.59859065 -2.85288164 5.73230171 0 0 Z " fill="#8A4CBE" transform="translate(245,34)"/>
<path d="M0 0 C0.33 0 0.66 0 1 0 C1 3.96 1 7.92 1 12 C2.423125 11.566875 3.84625 11.13375 5.3125 10.6875 C6.51326172 10.32205078 6.51326172 10.32205078 7.73828125 9.94921875 C10.09964573 8.95817977 11.33879993 7.91925057 13 6 C13 7.65 13 9.3 13 11 C5.125 14.28125 5.125 14.28125 0 13 C0 8.71 0 4.42 0 0 Z " fill="#AF86D0" transform="translate(77,480)"/>
<path d="M0 0 C5.50963614 6.26095016 5.27260601 13.55193258 5.125 21.4375 C5.11597656 22.35982422 5.10695313 23.28214844 5.09765625 24.23242188 C5.0742766 26.48855809 5.04150916 28.74413684 5 31 C4.67 31 4.34 31 4 31 C3.98018066 30.44014404 3.96036133 29.88028809 3.93994141 29.3034668 C3.84462217 26.76434146 3.73497247 24.22603112 3.625 21.6875 C3.5940625 20.80642578 3.563125 19.92535156 3.53125 19.01757812 C3.49257813 18.17001953 3.45390625 17.32246094 3.4140625 16.44921875 C3.3826416 15.66893311 3.3512207 14.88864746 3.31884766 14.0847168 C3.10412111 11.69844232 3.10412111 11.69844232 1 9 C0.5859375 6.73828125 0.5859375 6.73828125 0.375 4.3125 C0.30023438 3.50425781 0.22546875 2.69601563 0.1484375 1.86328125 C0.09945313 1.24839844 0.05046875 0.63351563 0 0 Z " fill="#A775CB" transform="translate(466,121)"/>
<path d="M0 0 C2 1 2 1 2.61328125 2.75390625 C3.61478758 8.57073593 3.83250896 14.68904569 1 20 C0.34 19.01 -0.32 18.02 -1 17 C-0.505 15.515 -0.505 15.515 0 14 C0.06970052 11.60509014 0.08448003 9.20832309 0.0625 6.8125 C0.05347656 5.54019531 0.04445313 4.26789063 0.03515625 2.95703125 C0.02355469 1.98121094 0.01195312 1.00539062 0 0 Z " fill="#7F45B8" transform="translate(324,222)"/>
<path d="M0 0 C0.99 0.33 1.98 0.66 3 1 C-1.31243812 5.66634642 -5.32885094 9.1065566 -11 12 C-11.33 11.34 -11.66 10.68 -12 10 C-11.34 9.67 -10.68 9.34 -10 9 C-10 8.34 -10 7.68 -10 7 C-8.68 7 -7.36 7 -6 7 C-6 6.34 -6 5.68 -6 5 C-2.53846154 2 -2.53846154 2 0 2 C0 1.34 0 0.68 0 0 Z " fill="#844BB8" transform="translate(334,364)"/>
<path d="M0 0 C0.7734375 0.495 0.7734375 0.495 1.5625 1 C1.5625 2.65 1.5625 4.3 1.5625 6 C0.9025 4.68 0.2425 3.36 -0.4375 2 C-4.3975 2 -8.3575 2 -12.4375 2 C-12.4375 2.66 -12.4375 3.32 -12.4375 4 C-13.0975 4 -13.7575 4 -14.4375 4 C-14.4375 3.01 -14.4375 2.02 -14.4375 1 C-9.6526169 -1.31994332 -5.02411005 -2.06117335 0 0 Z " fill="#8A5DB3" transform="translate(92.4375,474)"/>
<path d="M0 0 C-1.87256417 0.50904657 -3.74819341 1.00682455 -5.625 1.5 C-6.66914063 1.7784375 -7.71328125 2.056875 -8.7890625 2.34375 C-11.95687418 2.99118596 -14.77741467 3.1161292 -18 3 C-17.67 2.01 -17.34 1.02 -17 0 C-14.9174133 -0.19561869 -12.83388144 -0.38119313 -10.75 -0.5625 C-9.58984375 -0.66691406 -8.4296875 -0.77132813 -7.234375 -0.87890625 C-4.48128523 -0.98198087 -2.580018 -0.86213473 0 0 Z " fill="#8244B8" transform="translate(433,293)"/>
<path d="M0 0 C0.33 0.99 0.66 1.98 1 3 C-2.93031058 6.69210994 -5.71403288 7.39008072 -11 8 C-11.33 8.66 -11.66 9.32 -12 10 C-12.66 9.34 -13.32 8.68 -14 8 C-9.38 5.36 -4.76 2.72 0 0 Z " fill="#9059C0" transform="translate(290,227)"/>
<path d="M0 0 C1.0326802 2.78823655 1.04509293 3.8677274 0.0625 6.75 C-0.288125 7.4925 -0.63875 8.235 -1 9 C-0.01 9.33 0.98 9.66 2 10 C1.67 10.66 1.34 11.32 1 12 C0.01 11.67 -0.98 11.34 -2 11 C-2.45375 11.495 -2.9075 11.99 -3.375 12.5 C-5 14 -5 14 -7 14 C-5.54616376 9.88079732 -3.43337681 6.61081721 -1 3 C-0.67 2.01 -0.34 1.02 0 0 Z " fill="#9258C1" transform="translate(349,174)"/>
<path d="M0 0 C0.37125 0.515625 0.7425 1.03125 1.125 1.5625 C4.19796571 5.55735543 7.43483561 9.43483561 11 13 C10.01 13.33 9.02 13.66 8 14 C8 13.34 8 12.68 8 12 C6.68 11.67 5.36 11.34 4 11 C4 10.34 4 9.68 4 9 C3.34 9 2.68 9 2 9 C-0.29013653 5.5647952 -0.17842973 4.014669 0 0 Z " fill="#A069C8" transform="translate(295,147)"/>
<path d="M0 0 C0.99 0.33 1.98 0.66 3 1 C2.38511719 1.94359375 2.38511719 1.94359375 1.7578125 2.90625 C-1.61110785 8.25783639 -3.84740816 12.77600408 -5 19 C-5.33 19 -5.66 19 -6 19 C-6.05416188 17.39620659 -6.09286638 15.79188594 -6.125 14.1875 C-6.14820312 13.29417969 -6.17140625 12.40085938 -6.1953125 11.48046875 C-6 9 -6 9 -4 6 C-3.34 6 -2.68 6 -2 6 C-2 5.01 -2 4.02 -2 3 C-1.34 3 -0.68 3 0 3 C0 2.01 0 1.02 0 0 Z " fill="#A16CCA" transform="translate(131,117)"/>
<path d="M0 0 C4.62 0 9.24 0 14 0 C11.20208676 1.86527549 9.24252328 2.64913993 6.0625 3.5625 C5.20785156 3.81128906 4.35320312 4.06007813 3.47265625 4.31640625 C2.65667969 4.54199219 1.84070313 4.76757812 1 5 C0.27683594 5.23589844 -0.44632812 5.47179687 -1.19140625 5.71484375 C-1.78824219 5.80894531 -2.38507813 5.90304688 -3 6 C-3.66 5.34 -4.32 4.68 -5 4 C-3.02 3.34 -1.04 2.68 1 2 C0.67 1.34 0.34 0.68 0 0 Z " fill="#8A51BF" transform="translate(272,91)"/>
<path d="M0 0 C4.82608972 0.74247534 8.61021756 3.61021756 12 7 C11.625 9.125 11.625 9.125 11 11 C10.67 10.34 10.34 9.68 10 9 C9.34 9 8.68 9 8 9 C7.67 7.35 7.34 5.7 7 4 C4.03 3.505 4.03 3.505 1 3 C0.67 2.01 0.34 1.02 0 0 Z " fill="#8456B0" transform="translate(105,460)"/>
<path d="M0 0 C0.66 0.99 1.32 1.98 2 3 C1.01 4.485 1.01 4.485 0 6 C-0.66 6 -1.32 6 -2 6 C-2 6.66 -2 7.32 -2 8 C-3.98 8.66 -5.96 9.32 -8 10 C-6.34908222 5.70761377 -3.26245434 3.1206085 0 0 Z " fill="#7E45AD" transform="translate(265,430)"/>
<path d="M0 0 C1.670625 0.061875 1.670625 0.061875 3.375 0.125 C-0.375 2.125 -0.375 2.125 -2.625 2.125 C-3.67382391 5.68571312 -3.92886953 9.18027897 -4.1875 12.875 C-4.27128906 14.04546875 -4.35507813 15.2159375 -4.44140625 16.421875 C-4.50199219 17.31390625 -4.56257813 18.2059375 -4.625 19.125 C-4.955 19.125 -5.285 19.125 -5.625 19.125 C-5.67880578 16.33307795 -5.71857669 13.5421859 -5.75 10.75 C-5.76675781 9.9559375 -5.78351563 9.161875 -5.80078125 8.34375 C-5.81835473 6.27007985 -5.72835168 4.19616759 -5.625 2.125 C-3.625 0.125 -3.625 0.125 0 0 Z " fill="#A47AC5" transform="translate(82.625,425.875)"/>
<path d="M0 0 C0.99 0.33 1.98 0.66 3 1 C-0.38208239 4.58102841 -3.69676146 7.56773474 -8 10 C-8.99 9.67 -9.98 9.34 -11 9 C-8 7 -8 7 -6 7 C-5.67 6.01 -5.34 5.02 -5 4 C-4.34 4 -3.68 4 -3 4 C-2.67 3.01 -2.34 2.02 -2 1 C-1.34 1.33 -0.68 1.66 0 2 C0 1.34 0 0.68 0 0 Z " fill="#8C50BD" transform="translate(216,368)"/>
<path d="M0 0 C2.4375 0.75 2.4375 0.75 5 2 C5.8125 4.125 5.8125 4.125 6 6 C7.32 6.33 8.64 6.66 10 7 C10 7.99 10 8.98 10 10 C10.66 10 11.32 10 12 10 C12.33 10.99 12.66 11.98 13 13 C12.34 13 11.68 13 11 13 C11 12.34 11 11.68 11 11 C10.41734375 10.75378906 9.8346875 10.50757813 9.234375 10.25390625 C6.65287455 8.80519708 5.16155251 7.18806717 3.25 4.9375 C2.63640625 4.22464844 2.0228125 3.51179688 1.390625 2.77734375 C0 1 0 1 0 0 Z " fill="#A47ACC" transform="translate(15,270)"/>
<path d="M0 0 C2.97 0 5.94 0 9 0 C8.34 0.66 7.68 1.32 7 2 C8.98 2.66 10.96 3.32 13 4 C13 4.33 13 4.66 13 5 C6.07 4.505 6.07 4.505 -1 4 C-0.67 2.68 -0.34 1.36 0 0 Z " fill="#9C66C9" transform="translate(416,192)"/>
<path d="M0 0 C1.66611905 -0.042721 3.33382885 -0.04063832 5 0 C6 1 6 1 6.125 4.3125 C6.02893262 7.14648763 5.85249568 9.33595099 5 12 C4.34 12 3.68 12 3 12 C3 8.37 3 4.74 3 1 C2.01 0.67 1.02 0.34 0 0 Z " fill="#844CB7" transform="translate(322,159)"/>
<path d="M0 0 C5.48972839 -0.23360546 10.76943854 0.18165031 16 2 C16.33 2.66 16.66 3.32 17 4 C14.36 4.33 11.72 4.66 9 5 C8.67 4.34 8.34 3.68 8 3 C6.11235097 2.31527335 6.11235097 2.31527335 3.9375 1.875 C3.20402344 1.70742188 2.47054688 1.53984375 1.71484375 1.3671875 C1.14894531 1.24601562 0.58304687 1.12484375 0 1 C0 0.67 0 0.34 0 0 Z " fill="#996EC0" transform="translate(281,423)"/>
<path d="M0 0 C0.66 0.33 1.32 0.66 2 1 C1.67 3.97 1.34 6.94 1 10 C0.34 10 -0.32 10 -1 10 C-1 13.63 -1 17.26 -1 21 C-1.33 21 -1.66 21 -2 21 C-2.3690205 6.21867882 -2.3690205 6.21867882 0 0 Z " fill="#946ABA" transform="translate(51,407)"/>
<path d="M0 0 C0.99 0.33 1.98 0.66 3 1 C5.73289293 1.22797562 8.45042204 1.41668187 11.1875 1.5625 C11.93708984 1.60568359 12.68667969 1.64886719 13.45898438 1.69335938 C15.30578375 1.79922685 17.15286834 1.9000976 19 2 C19 2.66 19 3.32 19 4 C16.06167355 3.88618103 13.1248935 3.75943449 10.1875 3.625 C8.93743164 3.57859375 8.93743164 3.57859375 7.66210938 3.53125 C6.85966797 3.49257813 6.05722656 3.45390625 5.23046875 3.4140625 C4.12288208 3.36693115 4.12288208 3.36693115 2.99291992 3.31884766 C1 3 1 3 -2 1 C-1.34 0.67 -0.68 0.34 0 0 Z " fill="#925DBD" transform="translate(212,274)"/>
<path d="M0 0 C0.66 0 1.32 0 2 0 C2 0.66 2 1.32 2 2 C1.34 2 0.68 2 0 2 C0 2.99 0 3.98 0 5 C1.32 5 2.64 5 4 5 C4.12375 5.969375 4.2475 6.93875 4.375 7.9375 C4.684375 9.4534375 4.684375 9.4534375 5 11 C5.66 11.33 6.32 11.66 7 12 C4 12 4 12 2.39453125 10.46875 C1.61142578 9.49421875 1.61142578 9.49421875 0.8125 8.5 C0.28269531 7.8503125 -0.24710937 7.200625 -0.79296875 6.53125 C-1.19128906 6.0259375 -1.58960938 5.520625 -2 5 C-1.34 3.35 -0.68 1.7 0 0 Z " fill="#8F58C2" transform="translate(337,192)"/>
<path d="M0 0 C0.515625 0.2475 1.03125 0.495 1.5625 0.75 C1.2325 2.07 0.9025 3.39 0.5625 4.75 C-2.7375 5.08 -6.0375 5.41 -9.4375 5.75 C-9.4375 5.09 -9.4375 4.43 -9.4375 3.75 C-3.0375 -0.31153846 -3.0375 -0.31153846 0 0 Z " fill="#8950BE" transform="translate(274.4375,121.25)"/>
<path d="M0 0 C0.66 0.66 1.32 1.32 2 2 C1.01 3.485 1.01 3.485 0 5 C0.33 5.66 0.66 6.32 1 7 C0.01 8.32 -0.98 9.64 -2 11 C-2.33 9.68 -2.66 8.36 -3 7 C-3.66 7 -4.32 7 -5 7 C-5 6.34 -5 5.68 -5 5 C-4.34 5 -3.68 5 -3 5 C-2.87625 4.360625 -2.7525 3.72125 -2.625 3.0625 C-2.41875 2.381875 -2.2125 1.70125 -2 1 C-1.34 0.67 -0.68 0.34 0 0 Z " fill="#7528B7" transform="translate(238,112)"/>
<path d="M0 0 C2.475 0.99 2.475 0.99 5 2 C5 2.66 5 3.32 5 4 C4.01 4 3.02 4 2 4 C2 4.99 2 5.98 2 7 C0.02 7.66 -1.96 8.32 -4 9 C-4 7 -4 7 -2 5 C-1.29289322 3.35008418 -0.62056011 1.68437744 0 0 Z " fill="#7429B3" transform="translate(162,88)"/>
<path d="M0 0 C1.98 0.66 3.96 1.32 6 2 C5.67 3.32 5.34 4.64 5 6 C5 5.34 5 4.68 5 4 C2.54775306 4.10613836 2.54775306 4.10613836 0 5 C-1.37466625 7.47636012 -1.37466625 7.47636012 -2 10 C-2.33 10 -2.66 10 -3 10 C-2.67 7.36 -2.34 4.72 -2 2 C-1.34 2 -0.68 2 0 2 C0 1.34 0 0.68 0 0 Z " fill="#8C5CB7" transform="translate(398,452)"/>
<path d="M0 0 C-3.44449133 3.16893202 -6.4292278 3.50137031 -11 4 C-11.99 4.33 -12.98 4.66 -14 5 C-13.67 3.68 -13.34 2.36 -13 1 C-8.59085217 -0.10228696 -4.51617599 -0.07654536 0 0 Z " fill="#723BA6" transform="translate(285,424)"/>
<path d="M0 0 C0.99435406 3.09354597 0.87840996 4.90279155 0 8 C-3.03336186 8.22893297 -5.97465051 8.36475845 -9 8 C-11.0625 6 -11.0625 6 -12 4 C-11.67 3.34 -11.34 2.68 -11 2 C-10.01 3.32 -9.02 4.64 -8 6 C-5.59122743 5.88658466 -5.59122743 5.88658466 -3 5 C-1.15565651 2.53884453 -1.15565651 2.53884453 0 0 Z " fill="#8759B1" transform="translate(213,494)"/>
<path d="M0 0 C0.33 0 0.66 0 1 0 C1.26442904 7.59498961 0.60881575 14.57359158 -1 22 C-1.33 22 -1.66 22 -2 22 C-2.23576736 14.37685526 -1.83717315 7.41430591 0 0 Z " fill="#9B75BD" transform="translate(133,425)"/>
<path d="M0 0 C0.53109375 0.23589844 1.0621875 0.47179687 1.609375 0.71484375 C0.64 1.16859375 -0.329375 1.62234375 -1.328125 2.08984375 C-4.46142082 3.37270596 -4.46142082 3.37270596 -5.390625 5.71484375 C-7.040625 5.71484375 -8.690625 5.71484375 -10.390625 5.71484375 C-10.390625 6.37484375 -10.390625 7.03484375 -10.390625 7.71484375 C-11.710625 7.38484375 -13.030625 7.05484375 -14.390625 6.71484375 C-12.48335749 5.51230559 -10.5644238 4.32825426 -8.640625 3.15234375 C-7.57328125 2.49105469 -6.5059375 1.82976562 -5.40625 1.1484375 C-2.390625 -0.28515625 -2.390625 -0.28515625 0 0 Z " fill="#8E62BA" transform="translate(67.390625,399.28515625)"/>
<path d="M0 0 C5.75 0.875 5.75 0.875 8 2 C8.33 1.34 8.66 0.68 9 0 C9 0.66 9 1.32 9 2 C9.66 2.33 10.32 2.66 11 3 C11 4.32 11 5.64 11 7 C6.89188572 5.55007731 3.53144334 3.54592427 0 1 C0 0.67 0 0.34 0 0 Z " fill="#894FC1" transform="translate(173,259)"/>
<path d="M0 0 C0.66 1.32 1.32 2.64 2 4 C2.66 4 3.32 4 4 4 C5.32 6.64 6.64 9.28 8 12 C5.6875 11.9375 5.6875 11.9375 3 11 C0.83114896 7.03623776 0 4.53922384 0 0 Z " fill="#9359C1" transform="translate(130,255)"/>
<path d="M0 0 C0.66 0.33 1.32 0.66 2 1 C1.66275164 4.11954738 1.3790035 5.6209965 -0.875 7.875 C-1.57625 8.24625 -2.2775 8.6175 -3 9 C-3.99 8.67 -4.98 8.34 -6 8 C-4.7260411 5.96166576 -3.38938077 3.96147874 -2 2 C-1.34 2 -0.68 2 0 2 C0 1.34 0 0.68 0 0 Z " fill="#8B52BF" transform="translate(153,127)"/>
<path d="M0 0 C2.6875 -0.0625 2.6875 -0.0625 6 1 C8.14722803 3.77621402 9.78500152 6.70560113 11 10 C10.67 10.66 10.34 11.32 10 12 C9.67 11.01 9.34 10.02 9 9 C8.34 9 7.68 9 7 9 C5.63636792 7.02053408 4.30581356 5.0180755 3 3 C1.37648891 1.20605554 1.37648891 1.20605554 0 0 Z " fill="#8F58BC" transform="translate(334,106)"/>
<path d="M0 0 C5.67853635 1.41963409 9.53174216 4.39363961 14 8 C12 9 12 9 9.4375 8.1875 C7 7 7 7 6 5 C5.01 4.67 4.02 4.34 3 4 C3 3.34 3 2.68 3 2 C2.01 2.33 1.02 2.66 0 3 C0 2.01 0 1.02 0 0 Z " fill="#A470CC" transform="translate(202,4)"/>
<path d="M0 0 C0.33 0.99 0.66 1.98 1 3 C6.94 3.99 6.94 3.99 13 5 C12.67 5.66 12.34 6.32 12 7 C7.03567635 7.29201904 3.96298426 7.14707573 0 4 C-0.33 3.01 -0.66 2.02 -1 1 C-0.67 0.67 -0.34 0.34 0 0 Z " fill="#7645A9" transform="translate(334,517)"/>
<path d="M0 0 C4.62 0 9.24 0 14 0 C13.01 0.33 12.02 0.66 11 1 C10.67 1.99 10.34 2.98 10 4 C9.34 4 8.68 4 8 4 C8 3.34 8 2.68 8 2 C7.4225 2.226875 6.845 2.45375 6.25 2.6875 C4 3 4 3 0 0 Z " fill="#530694" transform="translate(201,425)"/>
<path d="M0 0 C5.33489907 0.45990509 9.37523328 1.06722111 14 4 C14.33 4.99 14.66 5.98 15 7 C9.80355921 5.40109514 4.93387858 3.25861997 0 1 C0 0.67 0 0.34 0 0 Z " fill="#915BC0" transform="translate(32,183)"/>
<path d="M0 0 C0.33 0.66 0.66 1.32 1 2 C2.32 2 3.64 2 5 2 C5 2.66 5 3.32 5 4 C5.66 4 6.32 4 7 4 C7.33 5.65 7.66 7.3 8 9 C6.68 8.34 5.36 7.68 4 7 C4 6.34 4 5.68 4 5 C3.21625 4.71125 2.4325 4.4225 1.625 4.125 C-1 3 -1 3 -3 1 C-2.01 0.67 -1.02 0.34 0 0 Z " fill="#8645BB" transform="translate(326,97)"/>
<path d="M0 0 C5.8997555 5.58924205 5.8997555 5.58924205 7 9 C6.625 11.25 6.625 11.25 6 13 C5.7525 12.443125 5.505 11.88625 5.25 11.3125 C4.02371088 8.85275287 4.02371088 8.85275287 1.875 6.5 C0 4 0 4 0 0 Z " fill="#9969C7" transform="translate(341,25)"/>
<path d="M0 0 C0.66 0 1.32 0 2 0 C2.33 0.99 2.66 1.98 3 3 C-3 9 -3 9 -6.5625 9.0625 C-7.696875 9.041875 -8.83125 9.02125 -10 9 C-10 8.67 -10 8.34 -10 8 C-8.02 8 -6.04 8 -4 8 C-4 7.01 -4 6.02 -4 5 C-2.68 5 -1.36 5 0 5 C0 3.35 0 1.7 0 0 Z " fill="#895CB4" transform="translate(420,514)"/>
<path d="M0 0 C3.98381075 2.16264012 6.88983545 4.71211176 10 8 C6.97580475 7.41196203 3.98241547 6.77321882 1 6 C0.67 4.02 0.34 2.04 0 0 Z " fill="#945CC4" transform="translate(148,277)"/>
<path d="M0 0 C3.35595828 0.59927826 5.37801226 1.84622436 8 4 C7.67 5.65 7.34 7.3 7 9 C4.03595495 6.19195732 1.55500981 3.81684226 0 0 Z " fill="#8541BC" transform="translate(147,174)"/>
<path d="M0 0 C1.03125 0.185625 2.0625 0.37125 3.125 0.5625 C6.76148442 0.97307082 9.45437009 0.778309 13 0 C13 0.66 13 1.32 13 2 C11 4 11 4 9.0546875 4.1953125 C7.03645833 4.13020833 5.01822917 4.06510417 3 4 C3 3.34 3 2.68 3 2 C2.01 1.67 1.02 1.34 0 1 C0 0.67 0 0.34 0 0 Z " fill="#9259C6" transform="translate(197,160)"/>
<path d="M0 0 C0.66 0.33 1.32 0.66 2 1 C-3.14953271 8.81308411 -3.14953271 8.81308411 -5 11 C-5.66 11 -6.32 11 -7 11 C-5.5140084 6.40693504 -3.14985318 3.56430755 0 0 Z " fill="#905AC3" transform="translate(263,127)"/>
<path d="M0 0 C1.65 0.99 3.3 1.98 5 3 C4.50168276 6.68754757 3.89932357 8.60490662 1 11 C0.67 10.01 0.34 9.02 0 8 C0.66 8 1.32 8 2 8 C2 6.35 2 4.7 2 3 C1.34 3 0.68 3 0 3 C0 2.01 0 1.02 0 0 Z " fill="#8C55BE" transform="translate(185,123)"/>
<path d="M0 0 C5.66104589 0.49658297 9.87674471 1.54510684 15 4 C11.67465243 5.10844919 9.37817425 4.84454356 6 4 C6 3.34 6 2.68 6 2 C4.02 2 2.04 2 0 2 C0 1.34 0 0.68 0 0 Z " fill="#925FC1" transform="translate(305,1)"/>
<path d="M0 0 C0.33 0 0.66 0 1 0 C1.3690205 9.41002278 1.3690205 9.41002278 -1 14 C-2.5625 12.8125 -2.5625 12.8125 -4 11 C-3.6875 8.3125 -3.6875 8.3125 -3 6 C-2.67 6.66 -2.34 7.32 -2 8 C-1.34 8 -0.68 8 0 8 C0 5.36 0 2.72 0 0 Z " fill="#793BAA" transform="translate(318,472)"/>
<path d="M0 0 C0.66 0 1.32 0 2 0 C1.34 6.6 0.68 13.2 0 20 C-0.33 20 -0.66 20 -1 20 C-1.02888514 16.85418577 -1.04675923 13.70840531 -1.0625 10.5625 C-1.07087891 9.66466797 -1.07925781 8.76683594 -1.08789062 7.84179688 C-1.09111328 6.98779297 -1.09433594 6.13378906 -1.09765625 5.25390625 C-1.10551147 4.06776733 -1.10551147 4.06776733 -1.11352539 2.85766602 C-1 1 -1 1 0 0 Z " fill="#9461C4" transform="translate(352,467)"/>
<path d="M0 0 C0.66 0 1.32 0 2 0 C3.1875 2.125 3.1875 2.125 4 5 C2.625 8.3125 2.625 8.3125 1 11 C0.34 10.67 -0.32 10.34 -1 10 C-1 8.02 -1 6.04 -1 4 C-0.34 3.67 0.32 3.34 1 3 C0.67 2.01 0.34 1.02 0 0 Z " fill="#6D27AC" transform="translate(307,435)"/>
<path d="M0 0 C1.77155654 0.11429397 3.54226229 0.24183037 5.3125 0.375 C6.79169922 0.47941406 6.79169922 0.47941406 8.30078125 0.5859375 C11 1 11 1 14 3 C14 3.66 14 4.32 14 5 C9.16371695 4.00956295 4.52381127 3.04301154 0 1 C0 0.67 0 0.34 0 0 Z " fill="#9B65C7" transform="translate(38,289)"/>
<path d="M0 0 C2.33333333 2.33333333 4.66666667 4.66666667 7 7 C7 7.99 7 8.98 7 10 C5.68 10.33 4.36 10.66 3 11 C3.33 9.68 3.66 8.36 4 7 C3.34 7 2.68 7 2 7 C0 4 0 4 0 0 Z " fill="#874DBC" transform="translate(135,186)"/>
<path d="M0 0 C1.32 0 2.64 0 4 0 C4 0.66 4 1.32 4 2 C5.32 2 6.64 2 8 2 C7.67 3.65 7.34 5.3 7 7 C3.42895561 5.12050295 1.45255699 3.82946843 0 0 Z " fill="#7F42B9" transform="translate(15,168)"/>
<path d="M0 0 C0.66 0 1.32 0 2 0 C2 4.29 2 8.58 2 13 C1.01 12.34 0.02 11.68 -1 11 C-1.28527337 7.14880946 -1.18082522 3.69007882 0 0 Z " fill="#9059C0" transform="translate(184,134)"/>
<path d="M0 0 C1.65 0.33 3.3 0.66 5 1 C2.65704057 2.56197295 0.30985802 4.10846459 -2.0625 5.625 C-2.75472656 6.07101563 -3.44695312 6.51703125 -4.16015625 6.9765625 C-6 8 -6 8 -8 8 C-7.34 6.68 -6.68 5.36 -6 4 C-5.01 4 -4.02 4 -3 4 C-3 3.34 -3 2.68 -3 2 C-2.01 2 -1.02 2 0 2 C0 1.34 0 0.68 0 0 Z " fill="#955BC5" transform="translate(153,96)"/>
<path d="M0 0 C1.65 0 3.3 0 5 0 C3.73058503 3.91402949 2.48832306 5.79072873 -1 8 C-0.814375 7.38125 -0.62875 6.7625 -0.4375 6.125 C0.23686176 3.95839822 0.23686176 3.95839822 -1 2 C-0.67 1.34 -0.34 0.68 0 0 Z " fill="#7E46B1" transform="translate(230,506)"/>
<path d="M0 0 C2.40450178 2.40450178 2.29609139 3.08233942 2.3125 6.375 C2.32925781 7.14585937 2.34601563 7.91671875 2.36328125 8.7109375 C2 11 2 11 -1 15 C-0.67 10.05 -0.34 5.1 0 0 Z " fill="#7F4AAB" transform="translate(217,472)"/>
<path d="M0 0 C2.31 0 4.62 0 7 0 C6.236875 0.515625 5.47375 1.03125 4.6875 1.5625 C1.38424393 4.55847644 0.51374274 6.85712514 -1 11 C-1.33 11 -1.66 11 -2 11 C-2.28571429 3.57142857 -2.28571429 3.57142857 0 0 Z " fill="#9366BC" transform="translate(278,450)"/>
<path d="M0 0 C0.99 0.33 1.98 0.66 3 1 C3 1.66 3 2.32 3 3 C3.66 3 4.32 3 5 3 C5 3.99 5 4.98 5 6 C5.66 6 6.32 6 7 6 C6.67 6.66 6.34 7.32 6 8 C4.35 7.67 2.7 7.34 1 7 C0.67 4.69 0.34 2.38 0 0 Z " fill="#7F4EB0" transform="translate(112,401)"/>
<path d="M0 0 C7.32026144 -0.48801743 7.32026144 -0.48801743 10.4375 1.75 C11.94398898 3.91934413 12.62951193 5.4065835 13 8 C12.34 8 11.68 8 11 8 C11 7.01 11 6.02 11 5 C10.01 4.67 9.02 4.34 8 4 C8 3.34 8 2.68 8 2 C5.36 1.67 2.72 1.34 0 1 C0 0.67 0 0.34 0 0 Z " fill="#AE8ACC" transform="translate(147,397)"/>
<path d="M0 0 C-1.78614318 1.03046722 -3.57910018 2.04913236 -5.375 3.0625 C-6.87160156 3.91521484 -6.87160156 3.91521484 -8.3984375 4.78515625 C-9.25695312 5.18605469 -10.11546875 5.58695313 -11 6 C-11.66 5.67 -12.32 5.34 -13 5 C-12.67 4.34 -12.34 3.68 -12 3 C-11.01 3 -10.02 3 -9 3 C-9 2.34 -9 1.68 -9 1 C-5.47051709 -0.66670026 -3.71727674 -1.13583456 0 0 Z " fill="#9864C7" transform="translate(445,184)"/>
<path d="M0 0 C3.5625 0.25 3.5625 0.25 7 1 C7.33 1.66 7.66 2.32 8 3 C8.99 3.66 9.98 4.32 11 5 C8.36 5 5.72 5 3 5 C3.33 3.68 3.66 2.36 4 1 C2.02 1.33 0.04 1.66 -2 2 C-1.34 1.34 -0.68 0.68 0 0 Z " fill="#712EAE" transform="translate(196,425)"/>
<path d="M0 0 C1.9375 1.5 1.9375 1.5 3 3 C0.98177083 2.67447917 -1.03645833 2.34895833 -3.0546875 2.0234375 C-3.69664062 2.01570313 -4.33859375 2.00796875 -5 2 C-5.66 2.66 -6.32 3.32 -7 4 C-9.125 3.625 -9.125 3.625 -11 3 C-7.49901508 -0.36094553 -4.74440725 -0.5175717 0 0 Z " fill="#63209B" transform="translate(379,422)"/>
<path d="M0 0 C-1.1094072 3.48670834 -2.26337666 6.77484237 -4 10 C-4.66 10 -5.32 10 -6 10 C-6.33663062 6.29706315 -6.47736015 4.60465619 -4.125 1.625 C-2 0 -2 0 0 0 Z " fill="#8C4EBD" transform="translate(231,351)"/>
<path d="M0 0 C4.72065967 1.54269924 9.41664092 3.07794619 14 5 C14 5.33 14 5.66 14 6 C11.03 5.67 8.06 5.34 5 5 C5 4.34 5 3.68 5 3 C3.35 2.67 1.7 2.34 0 2 C0 1.34 0 0.68 0 0 Z " fill="#9964C7" transform="translate(168,291)"/>
<path d="M0 0 C5.26053037 -0.31563182 8.44573816 0.33409063 13 3 C13 3.33 13 3.66 13 4 C8.428721 3.45144652 4.32564205 2.58255197 0 1 C0 0.67 0 0.34 0 0 Z " fill="#8F5ABE" transform="translate(197,271)"/>
<path d="M0 0 C2.31 0 4.62 0 7 0 C7.33 0.66 7.66 1.32 8 2 C3.56923077 4.09230769 3.56923077 4.09230769 0.6875 3.625 C0.130625 3.41875 -0.42625 3.2125 -1 3 C-0.67 2.01 -0.34 1.02 0 0 Z " fill="#570C95" transform="translate(64,192)"/>
<path d="M0 0 C0.99 0 1.98 0 3 0 C1.64978174 4.41889613 -0.26115668 6.34345343 -4 9 C-4.625 7.125 -4.625 7.125 -5 5 C-4.34 4.34 -3.68 3.68 -3 3 C-2.01 3.33 -1.02 3.66 0 4 C0 2.68 0 1.36 0 0 Z " fill="#8A5CB5" transform="translate(114,502)"/>
<path d="M0 0 C0.66 0 1.32 0 2 0 C1.45773019 3.79588866 -0.20127563 5.47211993 -3 8 C-3.66 6.35 -4.32 4.7 -5 3 C-4.34 2.34 -3.68 1.68 -3 1 C-2.01 1.33 -1.02 1.66 0 2 C0 1.34 0 0.68 0 0 Z " fill="#6B20AB" transform="translate(180,446)"/>
<path d="M0 0 C0.99 0.33 1.98 0.66 3 1 C2.2884375 1.99 2.2884375 1.99 1.5625 3 C-0.41317854 6.7933028 -0.64027463 9.75524068 -1 14 C-1.33 14 -1.66 14 -2 14 C-2.33 10.04 -2.66 6.08 -3 2 C-2.01 2 -1.02 2 0 2 C0 1.34 0 0.68 0 0 Z " fill="#A87ECC" transform="translate(356,295)"/>
<path d="M0 0 C3.42931954 3.7559214 4.56429083 8.23466745 6 13 C3.12785459 11.27671275 2.08251692 10.19391477 0.75 7.0625 C0 4 0 4 0 0 Z " fill="#9969C6" transform="translate(231,32)"/>
<path d="M0 0 C2.5 2.3125 2.5 2.3125 5 5 C5 5.99 5 6.98 5 8 C4.01 8.495 4.01 8.495 3 9 C3 8.01 3 7.02 3 6 C1.68 5.67 0.36 5.34 -1 5 C-0.67 3.35 -0.34 1.7 0 0 Z " fill="#8C50BC" transform="translate(219,15)"/>
<path d="M0 0 C1.98 0.495 1.98 0.495 4 1 C4 3.31 4 5.62 4 8 C2.35 7.67 0.7 7.34 -1 7 C-0.67 6.34 -0.34 5.68 0 5 C0 4.01 0 3.02 0 2 C0 1.34 0 0.68 0 0 Z " fill="#6721AE" transform="translate(178,501)"/>
<path d="M0 0 C0.66 0.33 1.32 0.66 2 1 C1.55090939 2.48199902 1.09043436 3.96055236 0.625 5.4375 C0.36976563 6.26121094 0.11453125 7.08492188 -0.1484375 7.93359375 C-1 10 -1 10 -3 11 C-3 9.35 -3 7.7 -3 6 C-2.34 6 -1.68 6 -1 6 C-1.0309375 4.7934375 -1.0309375 4.7934375 -1.0625 3.5625 C-1 1 -1 1 0 0 Z " fill="#854EBA" transform="translate(466,257)"/>
<path d="M0 0 C0.99 0.33 1.98 0.66 3 1 C3 1.99 3 2.98 3 4 C3.66 4 4.32 4 5 4 C5 4.66 5 5.32 5 6 C5.66 6 6.32 6 7 6 C6.67 7.32 6.34 8.64 6 10 C4.99421411 8.71283353 3.99553202 7.42011342 3 6.125 C2.443125 5.40570313 1.88625 4.68640625 1.3125 3.9453125 C0 2 0 2 0 0 Z " fill="#844FB8" transform="translate(152,238)"/>
<path d="M0 0 C5.875 3.625 5.875 3.625 7 7 C6.34 7 5.68 7 5 7 C5 6.34 5 5.68 5 5 C3.35 5 1.7 5 0 5 C0 4.34 0 3.68 0 3 C-0.66 3 -1.32 3 -2 3 C-2 2.34 -2 1.68 -2 1 C-1.34 0.67 -0.68 0.34 0 0 Z " fill="#874DBA" transform="translate(452,208)"/>
<path d="M0 0 C0.99 0.33 1.98 0.66 3 1 C3 1.66 3 2.32 3 3 C4.32 2.34 5.64 1.68 7 1 C7.33 1.99 7.66 2.98 8 4 C6.02 4.99 6.02 4.99 4 6 C2.35 4.35 0.7 2.7 -1 1 C-0.67 0.67 -0.34 0.34 0 0 Z " fill="#804CAF" transform="translate(263,517)"/>
<path d="M0 0 C1.32 0 2.64 0 4 0 C2.87548273 2.9719385 1.77706209 5.33440687 0 8 C-0.66 7.67 -1.32 7.34 -2 7 C-2 5.68 -2 4.36 -2 3 C-1.34 2.67 -0.68 2.34 0 2 C0 1.34 0 0.68 0 0 Z " fill="#8350B2" transform="translate(307,507)"/>
<path d="M0 0 C1.98 0 3.96 0 6 0 C6.66 1.32 7.32 2.64 8 4 C5.69 3.67 3.38 3.34 1 3 C0.67 2.01 0.34 1.02 0 0 Z " fill="#702AB2" transform="translate(177,121)"/>
<path d="M0 0 C-1.12073862 0.83905565 -2.24674547 1.67107831 -3.375 2.5 C-4.00148438 2.9640625 -4.62796875 3.428125 -5.2734375 3.90625 C-7 5 -7 5 -9 5 C-9 4.01 -9 3.02 -9 2 C-5.62638617 -0.62392187 -4.03085709 -1.27471549 0 0 Z " fill="#9863C4" transform="translate(266,99)"/>
<path d="M0 0 C2 2 2 2 2 6 C0.02 6.99 0.02 6.99 -2 8 C-2 5.69 -2 3.38 -2 1 C-1.34 0.67 -0.68 0.34 0 0 Z " fill="#7131A6" transform="translate(108,506)"/>
<path d="M0 0 C2 2 2 2 2 4 C1 6 1 6 -2.0625 7.25 C-3.031875 7.4975 -4.00125 7.745 -5 8 C-4.67 7.34 -4.34 6.68 -4 6 C-3.34 6 -2.68 6 -2 6 C-1.7834375 5.071875 -1.7834375 5.071875 -1.5625 4.125 C-1 2 -1 2 0 0 Z " fill="#7F4DB5" transform="translate(90,439)"/>
<path d="M0 0 C0.66 0 1.32 0 2 0 C1.67 1.32 1.34 2.64 1 4 C0.34 4 -0.32 4 -1 4 C-1.495 4.495 -1.99 4.99 -2.5 5.5 C-2.995 5.995 -3.49 6.49 -4 7 C-4.66 7 -5.32 7 -6 7 C-5.34 5.35 -4.68 3.7 -4 2 C-2.68 2 -1.36 2 0 2 C0 1.34 0 0.68 0 0 Z " fill="#8147B5" transform="translate(19,112)"/>
<path d="M0 0 C0.66 0.33 1.32 0.66 2 1 C0.3125 4 0.3125 4 -2 7 C-4.75 7.375 -4.75 7.375 -7 7 C-4.66666667 4.66666667 -2.33333333 2.33333333 0 0 Z " fill="#975DC9" transform="translate(154,6)"/>
<path d="M0 0 C0.33 0.99 0.66 1.98 1 3 C-1.31 4.98 -3.62 6.96 -6 9 C-5.67 7.68 -5.34 6.36 -5 5 C-4.01 4.67 -3.02 4.34 -2 4 C-2 3.01 -2 2.02 -2 1 C-1.34 0.67 -0.68 0.34 0 0 Z " fill="#8659AF" transform="translate(159,516)"/>
<path d="M0 0 C0.33 0 0.66 0 1 0 C1 2.31 1 4.62 1 7 C1.99 7.33 2.98 7.66 4 8 C3.67 9.32 3.34 10.64 3 12 C2.34 12 1.68 12 1 12 C-0.26237731 9.47524538 -0.09856404 7.68799534 -0.0625 4.875 C-0.05347656 3.96492188 -0.04445313 3.05484375 -0.03515625 2.1171875 C-0.02355469 1.41851562 -0.01195312 0.71984375 0 0 Z " fill="#510E94" transform="translate(330,501)"/>
<path d="M0 0 C0.99 0 1.98 0 3 0 C1.7508258 3.45925163 0.32472205 6.14693203 -2 9 C-2.90870687 6.45562075 -3.14745938 5.36864845 -2.125 2.8125 C-1 1 -1 1 0 0 Z " fill="#9368BB" transform="translate(356,458)"/>
<path d="M0 0 C0.99 0.33 1.98 0.66 3 1 C3 1.66 3 2.32 3 3 C3.66 3.33 4.32 3.66 5 4 C3.02 4.33 1.04 4.66 -1 5 C-1 1 -1 1 0 0 Z " fill="#6D28AA" transform="translate(100,456)"/>
<path d="M0 0 C3.96 0.33 7.92 0.66 12 1 C11.67 1.66 11.34 2.32 11 3 C6.78121808 3.19622241 3.82989106 2.80230168 0 1 C0 0.67 0 0.34 0 0 Z " fill="#864DBE" transform="translate(213,305)"/>
<path d="M0 0 C2.475 0.99 2.475 0.99 5 2 C3.35 3.65 1.7 5.3 0 7 C-0.66 6.34 -1.32 5.68 -2 5 C-1.34 5 -0.68 5 0 5 C0 3.35 0 1.7 0 0 Z " fill="#7B34B9" transform="translate(163,288)"/>
<path d="M0 0 C-2.3129482 2.3129482 -3.47904875 2.49580975 -6.625 3.125 C-7.44226563 3.29257812 -8.25953125 3.46015625 -9.1015625 3.6328125 C-10.04128906 3.81457031 -10.04128906 3.81457031 -11 4 C-11 3.34 -11 2.68 -11 2 C-7.17679443 0.57741188 -4.08718695 -0.24042276 0 0 Z " fill="#9761C6" transform="translate(284,270)"/>
<path d="M0 0 C0.66 0 1.32 0 2 0 C1.875 1.75 1.875 1.75 1 4 C-2.0625 6.25 -2.0625 6.25 -5 8 C-4.67 6.35 -4.34 4.7 -4 3 C-2.68 3 -1.36 3 0 3 C0 2.01 0 1.02 0 0 Z " fill="#8353BB" transform="translate(320,244)"/>
<path d="M0 0 C2.31 0.33 4.62 0.66 7 1 C7 1.66 7 2.32 7 3 C7.66 3 8.32 3 9 3 C8.67 3.66 8.34 4.32 8 5 C7.01 4.67 6.02 4.34 5 4 C5 3.34 5 2.68 5 2 C2.69 2.33 0.38 2.66 -2 3 C-1.34 2.01 -0.68 1.02 0 0 Z " fill="#7932AF" transform="translate(315,217)"/>
<path d="M0 0 C2.475 0.99 2.475 0.99 5 2 C5 2.66 5 3.32 5 4 C7.475 4.99 7.475 4.99 10 6 C8.68 6.33 7.36 6.66 6 7 C6 6.34 6 5.68 6 5 C5.071875 4.7834375 5.071875 4.7834375 4.125 4.5625 C2 4 2 4 0 3 C0 2.01 0 1.02 0 0 Z " fill="#9664C6" transform="translate(442,201)"/>
<path d="M0 0 C1.10272046 3.30816138 1.21537818 5.70111637 0 9 C-2.5625 10.3125 -2.5625 10.3125 -5 11 C-4.67 10.01 -4.34 9.02 -4 8 C-3.01 8 -2.02 8 -1 8 C-1.309375 6.576875 -1.309375 6.576875 -1.625 5.125 C-1.74875 4.09375 -1.8725 3.0625 -2 2 C-1.34 1.34 -0.68 0.68 0 0 Z " fill="#7834B4" transform="translate(452,171)"/>
<path d="M0 0 C-0.33 0.66 -0.66 1.32 -1 2 C-8.64288227 4.38056989 -8.64288227 4.38056989 -13 3 C-4.57142857 -0.42857143 -4.57142857 -0.42857143 0 0 Z " fill="#9C6FCE" transform="translate(55,92)"/>
<path d="M0 0 C3.36720387 1.39332574 4.9859524 2.9789286 7 6 C6.67 6.66 6.34 7.32 6 8 C5.34 8 4.68 8 4 8 C4 6.68 4 5.36 4 4 C2.68 3.67 1.36 3.34 0 3 C0 2.01 0 1.02 0 0 Z " fill="#9767C4" transform="translate(334,17)"/>
<path d="M0 0 C0.66 0.33 1.32 0.66 2 1 C-0.66666667 3.66666667 -3.33333333 6.33333333 -6 9 C-6 8.34 -6 7.68 -6 7 C-6.66 6.67 -7.32 6.34 -8 6 C-5.36 4.02 -2.72 2.04 0 0 Z " fill="#9D6BCA" transform="translate(267,8)"/>
<path d="M0 0 C2.56616632 3.84924948 2.55097676 6.4349304 3 11 C0.97144841 8.97144841 -0.00835839 7.66980434 -1 5 C-0.625 2.25 -0.625 2.25 0 0 Z " fill="#875AB0" transform="translate(238,449)"/>
<path d="M0 0 C2 3 2 3 3 6 C1.02 6.66 -0.96 7.32 -3 8 C-1.125 2.25 -1.125 2.25 0 0 Z " fill="#8A53BC" transform="translate(256,440)"/>
<path d="M0 0 C0 0.99 0 1.98 0 3 C-2.25 4.75 -2.25 4.75 -5 6 C-6.32 5.67 -7.64 5.34 -9 5 C-6.03 3.35 -3.06 1.7 0 0 Z " fill="#976AC8" transform="translate(321,283)"/>
<path d="M0 0 C0.33 0 0.66 0 1 0 C0 8.57142857 0 8.57142857 -1 12 C-1.99 12 -2.98 12 -4 12 C-2.66666667 8 -1.33333333 4 0 0 Z " fill="#A776CF" transform="translate(349,247)"/>
<path d="M0 0 C6.625 0.75 6.625 0.75 10 3 C6.18510326 4.46726798 3.70988378 3.43336419 0 2 C0 1.34 0 0.68 0 0 Z " fill="#8E55BF" transform="translate(210,239)"/>
<path d="M0 0 C0 0.99 0 1.98 0 3 C-2.3125 4.75 -2.3125 4.75 -5 6 C-5.99 5.67 -6.98 5.34 -8 5 C-7.34 5 -6.68 5 -6 5 C-6 4.34 -6 3.68 -6 3 C-5.34 3 -4.68 3 -4 3 C-4 2.34 -4 1.68 -4 1 C-2 0 -2 0 0 0 Z " fill="#915EBE" transform="translate(306,215)"/>
<path d="M0 0 C0.66 0 1.32 0 2 0 C3.20272819 2.40545638 3.10071472 3.94996953 3.0625 6.625 C3.05347656 7.44226562 3.04445313 8.25953125 3.03515625 9.1015625 C3.02355469 9.72804688 3.01195312 10.35453125 3 11 C2.67 11 2.34 11 2 11 C0.57741188 7.17679443 -0.24042276 4.08718695 0 0 Z " fill="#7535AE" transform="translate(347,37)"/>
<path d="M0 0 C-2.297221 1.74271938 -4.59866729 3.39911152 -7 5 C-7.99 4.67 -8.98 4.34 -10 4 C-9.34 4 -8.68 4 -8 4 C-8 3.01 -8 2.02 -8 1 C-5.07175348 0.02391783 -3.04386724 -0.08226668 0 0 Z " fill="#976DC2" transform="translate(225,520)"/>
<path d="M0 0 C1.98 0 3.96 0 6 0 C6 0.66 6 1.32 6 2 C5.34 2 4.68 2 4 2 C3.34 3.32 2.68 4.64 2 6 C1.01 4.68 0.02 3.36 -1 2 C-0.67 1.34 -0.34 0.68 0 0 Z " fill="#7B41AD" transform="translate(299,515)"/>
<path d="M0 0 C-0.8125 2.4375 -0.8125 2.4375 -2 5 C-2.99 5.33 -3.98 5.66 -5 6 C-5 4.35 -5 2.7 -5 1 C-3 0 -3 0 0 0 Z " fill="#723EA9" transform="translate(229,514)"/>
<path d="M0 0 C2 2 2 2 2.25 5 C2 8 2 8 0 10 C-1.125 2.25 -1.125 2.25 0 0 Z " fill="#6F33A3" transform="translate(117,492)"/>
<path d="M0 0 C1 2 1 2 0.0625 5.125 C-0.288125 6.07375 -0.63875 7.0225 -1 8 C-1.66 8 -2.32 8 -3 8 C-3 8.66 -3 9.32 -3 10 C-3.66 9.67 -4.32 9.34 -5 9 C-3.35 6.03 -1.7 3.06 0 0 Z " fill="#946DC1" transform="translate(182,436)"/>
<path d="M0 0 C0.33 0.66 0.66 1.32 1 2 C1.99 2.66 2.98 3.32 4 4 C-0.05606165 3.53199289 -3.46588679 3.12046792 -7 1 C-4 0 -4 0 0 0 Z " fill="#A272CE" transform="translate(284,379)"/>
<path d="M0 0 C0.33 1.32 0.66 2.64 1 4 C-0.4375 6.25 -0.4375 6.25 -2 8 C-2.99 7.67 -3.98 7.34 -5 7 C-3.35 4.69 -1.7 2.38 0 0 Z " fill="#9B69C9" transform="translate(344,259)"/>
<path d="M0 0 C2.31 1.65 4.62 3.3 7 5 C4 6 4 6 1.8125 5.0625 C1.214375 4.711875 0.61625 4.36125 0 4 C0 2.68 0 1.36 0 0 Z " fill="#925DC2" transform="translate(181,222)"/>
<path d="M0 0 C1.65 0 3.3 0 5 0 C4.1875 2.4375 4.1875 2.4375 3 5 C2.01 5.33 1.02 5.66 0 6 C0 4.02 0 2.04 0 0 Z " fill="#8340BA" transform="translate(457,168)"/>
<path d="M0 0 C0.33 1.32 0.66 2.64 1 4 C0.195625 4.28875 -0.60875 4.5775 -1.4375 4.875 C-4.1326468 5.73262568 -4.1326468 5.73262568 -5 8 C-5 6.68 -5 5.36 -5 4 C-4.34 4 -3.68 4 -3 4 C-2.67 3.34 -2.34 2.68 -2 2 C-1.34 1.34 -0.68 0.68 0 0 Z " fill="#5E0FA6" transform="translate(18,115)"/>
<path d="M0 0 C0.33 0.99 0.66 1.98 1 3 C1.66 3 2.32 3 3 3 C3.33 5.64 3.66 8.28 4 11 C3.34 10.67 2.68 10.34 2 10 C2 9.01 2 8.02 2 7 C1.34 7 0.68 7 0 7 C0 4.69 0 2.38 0 0 Z " fill="#7D3BB7" transform="translate(228,27)"/>
<path d="M0 0 C0.66 0 1.32 0 2 0 C2.33 0.99 2.66 1.98 3 3 C1.68 4.32 0.36 5.64 -1 7 C-1.33 6.34 -1.66 5.68 -2 5 C-1.0625 2.375 -1.0625 2.375 0 0 Z " fill="#5D0DA4" transform="translate(259,15)"/>
<path d="M0 0 C0 0.33 0 0.66 0 1 C-3.63 1.66 -7.26 2.32 -11 3 C-6.77319309 -1.22680691 -5.69611211 -1.11445672 0 0 Z " fill="#8E51C2" transform="translate(280,5)"/>
<path d="M0 0 C1.67542976 0.28604898 3.34385343 0.61781233 5 1 C4.67 1.66 4.34 2.32 4 3 C1.4375 3.625 1.4375 3.625 -1 4 C-1 1 -1 1 0 0 Z " fill="#7239AA" transform="translate(95,516)"/>
<path d="M0 0 C1.32 0 2.64 0 4 0 C5.0625 1.8125 5.0625 1.8125 6 4 C5.67 4.99 5.34 5.98 5 7 C3.35 4.69 1.7 2.38 0 0 Z " fill="#966CBD" transform="translate(256,511)"/>
<path d="M0 0 C0.66 0.33 1.32 0.66 2 1 C1.67 1.99 1.34 2.98 1 4 C0.01 4 -0.98 4 -2 4 C-1.67 4.99 -1.34 5.98 -1 7 C-2.32 6.34 -3.64 5.68 -5 5 C-3.35 3.35 -1.7 1.7 0 0 Z " fill="#9668BD" transform="translate(188,430)"/>
<path d="M0 0 C0.33 0 0.66 0 1 0 C1.25 2.8125 1.25 2.8125 1 6 C-1 7.875 -1 7.875 -3 9 C-2.44271087 5.65626525 -1.64826111 2.96687001 0 0 Z " fill="#8C5CB7" transform="translate(333,426)"/>
<path d="M0 0 C1.65 0.33 3.3 0.66 5 1 C4.67 1.66 4.34 2.32 4 3 C3.34 2.67 2.68 2.34 2 2 C1.34 3.32 0.68 4.64 0 6 C-1.125 2.25 -1.125 2.25 0 0 Z " fill="#6A24AE" transform="translate(116,410)"/>
<path d="M0 0 C0.99 0 1.98 0 3 0 C3 3.3 3 6.6 3 10 C1.19669467 6.39338934 0.53400897 3.91606575 0 0 Z " fill="#A76ECE" transform="translate(239,333)"/>
<path d="M0 0 C1.98 0 3.96 0 6 0 C6 1.98 6 3.96 6 6 C5.01 6 4.02 6 3 6 C3.33 4.35 3.66 2.7 4 1 C2.68 0.67 1.36 0.34 0 0 Z " fill="#5D0CA4" transform="translate(316,162)"/>
<path d="M0 0 C0.99 0 1.98 0 3 0 C3 2.31 3 4.62 3 7 C2.34 7 1.68 7 1 7 C0.67 4.69 0.34 2.38 0 0 Z " fill="#6623AB" transform="translate(353,133)"/>
<path d="M0 0 C1.32 0 2.64 0 4 0 C4 0.99 4 1.98 4 3 C4.9793879 4.02019573 5.97895449 5.02149805 7 6 C7 6.66 7 7.32 7 8 C6.34 8 5.68 8 5 8 C3.7109375 6.25 3.7109375 6.25 2.375 4 C1.92898437 3.2575 1.48296875 2.515 1.0234375 1.75 C0.68570313 1.1725 0.34796875 0.595 0 0 Z " fill="#9F70C7" transform="translate(226,109)"/>
<path d="M0 0 C0.99 0 1.98 0 3 0 C2.25 2.4375 2.25 2.4375 1 5 C-1.125 5.8125 -1.125 5.8125 -3 6 C-1.125 1.125 -1.125 1.125 0 0 Z " fill="#8852BB" transform="translate(137,22)"/>
<path d="M0 0 C0 0.33 0 0.66 0 1 C-3.3 1.33 -6.6 1.66 -10 2 C-10 1.34 -10 0.68 -10 0 C-6.7169902 -1.6415049 -3.57454967 -0.51888624 0 0 Z " fill="#7E48AC" transform="translate(94,520)"/>
<path d="M0 0 C2.31 0.66 4.62 1.32 7 2 C6.67 3.32 6.34 4.64 6 6 C3.96166576 4.7260411 1.96147874 3.38938077 0 2 C0 1.34 0 0.68 0 0 Z " fill="#8959B5" transform="translate(185,517)"/>
<path d="M0 0 C1.2065625 0.0309375 1.2065625 0.0309375 2.4375 0.0625 C1.7775 2.0425 1.1175 4.0225 0.4375 6.0625 C0.1075 5.4025 -0.2225 4.7425 -0.5625 4.0625 C-1.2225 4.0625 -1.8825 4.0625 -2.5625 4.0625 C-2.8925 3.0725 -3.2225 2.0825 -3.5625 1.0625 C-2.5625 0.0625 -2.5625 0.0625 0 0 Z " fill="#8346B7" transform="translate(116.5625,438.9375)"/>
<path d="M0 0 C1.65 0.33 3.3 0.66 5 1 C3.515 2.485 3.515 2.485 2 4 C1.01 3.34 0.02 2.68 -1 2 C-0.67 1.34 -0.34 0.68 0 0 Z " fill="#6428A1" transform="translate(354,430)"/>
<path d="M0 0 C1.32 1.65 2.64 3.3 4 5 C0.7 4.34 -2.6 3.68 -6 3 C-6 2.67 -6 2.34 -6 2 C-4.02 1.34 -2.04 0.68 0 0 Z " fill="#A16DD3" transform="translate(168,378)"/>
<path d="M0 0 C0.99 0.33 1.98 0.66 3 1 C-0.465 3.97 -0.465 3.97 -4 7 C-3.67 5.68 -3.34 4.36 -3 3 C-2.01 2.67 -1.02 2.34 0 2 C0 1.34 0 0.68 0 0 Z " fill="#8F5EC0" transform="translate(334,364)"/>
<path d="M0 0 C0.66 0 1.32 0 2 0 C2 0.66 2 1.32 2 2 C2.66 2 3.32 2 4 2 C3.34 3.32 2.68 4.64 2 6 C1.67 5.34 1.34 4.68 1 4 C0.34 3.67 -0.32 3.34 -1 3 C-0.67 2.01 -0.34 1.02 0 0 Z " fill="#7C37BA" transform="translate(338,355)"/>
<path d="M0 0 C3 1 3 1 4.25 2.875 C5 5 5 5 4 8 C0 2.25 0 2.25 0 0 Z " fill="#8C57BD" transform="translate(247,354)"/>
<path d="M0 0 C2 3.75 2 3.75 2 6 C2.99 6.33 3.98 6.66 5 7 C4.01 8.485 4.01 8.485 3 10 C-0.22265625 4.82421875 -0.22265625 4.82421875 -1 3 C-0.67 2.01 -0.34 1.02 0 0 Z " fill="#A26ECC" transform="translate(130,346)"/>
<path d="M0 0 C1.98 1.65 3.96 3.3 6 5 C5.01 5.33 4.02 5.66 3 6 C2.01 5.34 1.02 4.68 0 4 C0 2.68 0 1.36 0 0 Z " fill="#9A67CA" transform="translate(138,267)"/>
<path d="M0 0 C3.77545388 1.09068668 6.47043472 1.9083091 9 5 C8.01 5.33 7.02 5.66 6 6 C5.67 5.34 5.34 4.68 5 4 C3.35636866 3.27840576 1.68949614 2.60648579 0 2 C0 1.34 0 0.68 0 0 Z " fill="#A376CA" transform="translate(193,231)"/>
<path d="M0 0 C0.33 0.66 0.66 1.32 1 2 C1.66 2.33 2.32 2.66 3 3 C2.34 4.65 1.68 6.3 1 8 C0.67 8 0.34 8 0 8 C0 6.35 0 4.7 0 3 C-0.66 2.67 -1.32 2.34 -2 2 C-1.34 1.34 -0.68 0.68 0 0 Z " fill="#5E0CA2" transform="translate(460,161)"/>
<path d="M0 0 C2.01136276 2.55991624 3.62845496 5.04590299 5 8 C1.125 7.125 1.125 7.125 0 6 C-0.04080783 4.00041636 -0.04254356 1.99954746 0 0 Z " fill="#A67BCD" transform="translate(295,147)"/>
<path d="M0 0 C1.9375 0.5625 1.9375 0.5625 4 2 C4.75 5.625 4.75 5.625 5 9 C2.67527795 6.14693203 1.2491742 3.45925163 0 0 Z " fill="#A06ACB" transform="translate(345,118)"/>
<path d="M0 0 C3.465 1.98 3.465 1.98 7 4 C7 4.66 7 5.32 7 6 C3.75728494 5.4409112 2.06942576 4.5867822 0 2 C0 1.34 0 0.68 0 0 Z " fill="#9765C5" transform="translate(451,104)"/>
<path d="M0 0 C0 0.66 0 1.32 0 2 C-2.8125 3.5625 -2.8125 3.5625 -6 5 C-6.99 4.67 -7.98 4.34 -9 4 C-8 2 -8 2 -5.0625 0.875 C-2 0 -2 0 0 0 Z " fill="#A376CE" transform="translate(166,2)"/>
<path d="M0 0 C3.37462715 0.54723683 5.08235 1.0549 8 3 C5.6875 3.625 5.6875 3.625 3 4 C2.01 3.34 1.02 2.68 0 2 C0 1.34 0 0.68 0 0 Z " fill="#6717AE" transform="translate(166,2)"/>
</svg>
